<?xml version="1.0" encoding="utf-8"?>
<!-- Generator: Adobe Illustrator 24.3.0, SVG Export Plug-In . SVG Version: 6.00 Build 0)  -->
<svg version="1.1" xmlns="http://www.w3.org/2000/svg" xmlns:xlink="http://www.w3.org/1999/xlink" x="0px" y="0px"
	 viewBox="0 0 500 500" style="enable-background:new 0 0 500 500;" xml:space="preserve">
<style type="text/css">
	.st0{fill-rule:evenodd;clip-rule:evenodd;}
</style>
<g id="Opportunités">
</g>
<g id="Non_x5F_Intéressé">
</g>
<g id="Pointeur">
</g>
<g id="Litige">
</g>
<g id="Désactivé">
</g>
<g id="Liste_x5F_Noir">
</g>
<g id="Arrow">
	<path d="M437.09,408.35L437.09,408.35c0-10.01,0-19.95,0-29.95c0-16.03,0-32.02,0-48.05c0-3.66,0-7.31,0-11.01
		c0-4.73-2.07-9.71-5.39-13.08c-3.21-3.21-8.46-5.61-13.08-5.39c-4.76,0.22-9.71,1.77-13.08,5.39c-3.29,3.62-5.39,8.05-5.39,13.08
		c0,10.01,0,19.98,0,29.99c0,4.8,0,9.6,0,14.4c-0.18-0.18-0.41-0.41-0.59-0.59c-11.6-11.6-23.16-23.16-34.76-34.76
		c-14.07-14.07-28.18-28.18-42.25-42.25c-13-13-25.97-25.97-38.97-38.97c9.34-9.34,18.69-18.69,28-28
		c14.55-14.55,29.11-29.11,43.69-43.69c12.3-12.3,24.6-24.6,36.9-36.9c2.66-2.66,5.32-5.32,7.98-7.98c0,11.12,0,22.24,0,33.39
		c0,3.66,0,7.31,0,11.01c0,4.73,2.07,9.71,5.39,13.08c3.21,3.21,8.46,5.61,13.08,5.39c4.76-0.22,9.71-1.77,13.08-5.39
		c3.29-3.62,5.39-8.05,5.39-13.08c0-10.01,0-19.98,0-29.99c0-16.03,0-32.02,0-48.05c0-3.66,0-7.31,0-11.01
		c0-1.99-0.33-3.95-0.96-5.76c-0.92-2.77-2.4-5.43-4.43-7.28c-3.29-2.99-7.5-5.28-12.08-5.39c-0.33,0-0.66-0.04-1-0.04
		c-10.01,0-19.98,0-29.99,0c-16.03,0-32.02,0-48.05,0c-3.66,0-7.31,0-11.01,0c-4.73,0-9.71,2.07-13.08,5.39
		c-3.21,3.21-5.61,8.46-5.39,13.08c0.22,4.76,1.77,9.71,5.39,13.08c3.62,3.32,8.05,5.39,13.08,5.39c10.01,0,19.98,0,29.99,0
		c4.84,0,9.64,0,14.48,0c-0.22,0.22-0.41,0.41-0.63,0.63c-11.6,11.6-23.16,23.16-34.76,34.76c-14.07,14.07-28.18,28.18-42.25,42.25
		c-13,13-25.97,25.97-38.97,38.97c-9.34-9.34-18.69-18.69-28-28c-14.55-14.55-29.11-29.11-43.69-43.69
		c-12.3-12.3-24.6-24.6-36.9-36.9c-2.66-2.66-5.36-5.36-8.02-8.02c11.15,0,22.31,0,33.46,0c3.66,0,7.31,0,11.01,0
		c4.73,0,9.71-2.07,13.08-5.39c3.21-3.21,5.61-8.46,5.39-13.08c-0.22-4.76-1.77-9.71-5.39-13.08c-3.62-3.32-8.05-5.39-13.08-5.39
		c-10.01,0-19.98,0-29.99,0c-16.03,0-32.02,0-48.05,0c-3.66,0-7.31,0-11.01,0c-2.4,0-4.69,0.48-6.8,1.37
		c-2.4,0.92-4.65,2.29-6.28,4.06c-3.21,3.51-5.61,8.13-5.39,13.08c0,10.01,0,19.95,0,29.95c0,16.03,0,32.02,0,48.05
		c0,3.66,0,7.31,0,11.01c0,4.73,2.07,9.71,5.39,13.08c3.21,3.21,8.46,5.61,13.08,5.39c4.76-0.22,9.71-1.77,13.08-5.39
		c3.29-3.62,5.39-8.05,5.39-13.08c0-10.01,0-19.98,0-29.99c0-4.8,0-9.6,0-14.4c0.18,0.18,0.41,0.41,0.59,0.59
		c11.6,11.6,23.16,23.16,34.76,34.76c14.07,14.07,28.18,28.18,42.25,42.25c13,13,25.97,25.97,38.97,38.97
		c-9.34,9.34-18.69,18.69-28,28c-14.55,14.55-29.11,29.11-43.69,43.69c-12.3,12.3-24.6,24.6-36.9,36.9
		c-2.66,2.66-5.32,5.32-7.98,7.98c0-11.12,0-22.24,0-33.39c0-3.66,0-7.31,0-11.01c0-4.73-2.07-9.71-5.39-13.08
		c-3.21-3.21-8.46-5.61-13.08-5.39c-4.76,0.22-9.71,1.77-13.08,5.39c-3.29,3.62-5.39,8.05-5.39,13.08c0,10.01,0,19.98,0,29.99
		c0,16.03,0,32.02,0,48.05c0,3.66,0,7.31,0,11.01c0,1.99,0.33,3.92,0.96,5.76c0.92,2.77,2.4,5.43,4.43,7.28
		c3.29,2.99,7.5,5.28,12.08,5.39c0.33,0,0.66,0.04,1,0.04c10.01,0,19.98,0,29.99,0c16.03,0,32.02,0,48.05,0c3.66,0,7.31,0,11.01,0
		c4.73,0,9.71-2.07,13.08-5.39c3.21-3.21,5.61-8.46,5.39-13.08c-0.22-4.76-1.77-9.71-5.39-13.08c-3.62-3.32-8.05-5.39-13.08-5.39
		c-10.01,0-19.98,0-29.99,0c-4.84,0-9.64,0-14.48,0c0.22-0.22,0.41-0.41,0.63-0.63c11.6-11.6,23.16-23.16,34.76-34.76
		c14.07-14.07,28.18-28.18,42.25-42.25c13-13,25.97-25.97,38.97-38.97c9.34,9.34,18.69,18.69,28,28
		c14.55,14.55,29.11,29.11,43.69,43.69c12.3,12.3,24.6,24.6,36.9,36.9c2.66,2.66,5.36,5.36,8.02,8.02c-11.15,0-22.31,0-33.46,0
		c-3.66,0-7.31,0-11.01,0c-4.73,0-9.71,2.07-13.08,5.39c-3.21,3.21-5.61,8.46-5.39,13.08c0.22,4.76,1.77,9.71,5.39,13.08
		c3.62,3.32,8.05,5.39,13.08,5.39c10.01,0,19.98,0,29.99,0c16.03,0,32.02,0,48.05,0c3.66,0,7.31,0,11.01,0c2.4,0,4.69-0.48,6.8-1.37
		c2.4-0.92,4.65-2.29,6.28-4.06C434.91,417.92,437.31,413.3,437.09,408.35z"/>
</g>
<g id="RDV">
</g>
<g id="Crochet">
</g>
<g id="Relance">
</g>
<g id="Retour_x5F_Appel">
</g>
<g id="Appel">
</g>
</svg>
