<?xml version="1.0" encoding="utf-8"?>
<!-- Generator: Adobe Illustrator 24.3.0, SVG Export Plug-In . SVG Version: 6.00 Build 0)  -->
<svg version="1.1" xmlns="http://www.w3.org/2000/svg" xmlns:xlink="http://www.w3.org/1999/xlink" x="0px" y="0px"
	 viewBox="0 0 500 500" style="enable-background:new 0 0 500 500;" xml:space="preserve">
<style type="text/css">
	.st0{fill-rule:evenodd;clip-rule:evenodd;}
</style>
<g id="Opportunités">
</g>
<g id="Non_x5F_Intéressé">
</g>
<g id="Pointeur">
</g>
<g id="Litige">
</g>
<g id="Désactivé">
</g>
<g id="Liste_x5F_Noir">
</g>
<g id="Arrow">
</g>
<g id="RDV">
	<g id="RDV_1_">
		<path d="M177.15,332.51h52.64v-51.86h-52.64V332.51z M98.2,280.64v52.64h51.86v-52.64H98.2z M150.06,254.33v-51.86H98.2v51.86
			H150.06z M177.15,201.69v51.86h52.64v-51.86C229.79,201.69,177.15,201.69,177.15,201.69z M256.11,201.69v51.86h51.86v-51.86
			L256.11,201.69z M335.06,84.03c0-8.51,0-17.8,0-26.32c0-6.97-5.42-13.16-12.38-13.93l0,0c-6.97,0-13.16,5.42-13.16,12.38v0.77
			c0,17.8,0,35.61,0,52.64c0,6.97,5.42,12.38,12.38,13.16h0.77c6.97,0,13.16-6.19,13.16-13.16c0,0,0,0,0-0.77
			C335.06,101.06,335.06,92.55,335.06,84.03z M124.52,83.26V57.72c0.77-6.97-5.42-13.93-12.38-13.93
			c-6.97-0.77-13.16,5.42-13.93,12.38v0.77c0,17.8,0,35.61,0,52.64c0,6.97,5.42,13.16,12.38,13.93s13.16-5.42,13.93-12.38
			c0-0.77,0-1.55,0-1.55L124.52,83.26z M45.56,123.51c0-34.06,39.48-27.09,39.48-27.09v12.38c0,13.16,10.06,24.77,23.22,26.32
			c13.16,1.55,25.54-6.97,28.64-20.13c0.77-5.42,0.77-10.84,0.77-17.03c0-0.77,0-1.55,0-2.32h157.91v13.16
			c-0.77,14.71,10.06,27.09,24.77,27.87c14.71,0.77,27.09-10.06,27.87-24.77c0-0.77,0-1.55,0-3.1c0-4.64,0-8.51,0-13.16
			c17.03-3.1,39.48,3.1,39.48,26.32c0,34.06,0,68.12,0,102.18c0,0.77,0,1.55,0,2.32h-24c-3.1,0-2.32-2.32-2.32-3.87
			c0-14.71,0-28.64,0-43.35v-5.42H71.88v177.26c0,6.19,0,6.19,6.19,6.19h151.71v26.32h-4.64c-49.54,0-99.08,0-147.84,0
			c-14.71,0.77-28.64-6.97-30.96-21.67c0,0,0-4.64,0-3.1L45.56,123.51z M465.87,365.79c-0.77,9.29-1.55,14.71-3.87,21.67
			c-16.26,55.73-74.31,88.24-130.04,72.76c-55.73-15.48-88.24-73.54-71.99-130.04c15.48-55.73,73.54-88.24,130.04-72.76
			c41.8,11.61,71.99,47.99,75.86,91.34C465.87,350.31,465.87,365.79,465.87,365.79z M360.6,438.55c43.35,0,78.95-34.83,78.95-78.18
			s-34.83-78.95-78.18-78.95s-78.95,34.83-78.95,78.18l0,0C282.42,402.17,317.26,437.78,360.6,438.55L360.6,438.55z M360.6,358.82
			c13.16,0,26.32,0,38.7,0c6.97,0,13.16,5.42,13.93,13.16c0,1.55,0,3.1-0.77,3.87c-1.55,5.42-6.19,9.29-12.38,9.29
			c-17.8,0-35.61,0-53.41,0c-6.97,0-12.38-5.42-13.16-12.38v-0.77c0-17.03,0-34.83,0-51.86c0-6.97,5.42-13.16,12.38-13.93
			c6.97,0,13.16,5.42,13.93,12.38v0.77c0,10.84,0,22.45,0,33.28L360.6,358.82z"/>
	</g>
</g>
<g id="Crochet">
</g>
<g id="Relance">
</g>
<g id="Retour_x5F_Appel">
</g>
<g id="Appel">
</g>
</svg>
