<svg xmlns="http://www.w3.org/2000/svg" viewBox="0 0 500 500"><defs><style>.cls-1{fill:#25b34b;fill-rule:evenodd;}</style></defs><g id="Appel_Vert"><path class="cls-1" d="M325.32,448.5c62,12.1,125.52-46.87,125.52-46.87s10.58-15.13,3-27.22-71.07-59-71.07-59-16.64-10.59-30.25,0c-12.09,10.59-45.36,40.83-45.36,40.83s-13.61,4.54-42.34-16.63C248.2,329,174.1,254.94,163.52,239.82,142.35,209.58,146.88,196,146.88,196s31.76-33.27,40.83-45.37c10.59-12.1,1.52-28.73,1.52-28.73s-48.39-63.51-60.49-72.59c-10.59-7.56-27.22,3-27.22,3s-57.47,65-46.88,125.51C74.3,277.63,225.52,428.85,325.32,448.5Z"/></g></svg>