<svg xmlns="http://www.w3.org/2000/svg" viewBox="0 0 500 500"><defs><style>.cls-1{fill:#c1529e;}</style></defs><g id="Vente"><path class="cls-1" d="M198.86,81.16c-25.16,3.77-46.51,24.24-50.26,48.57,1.1.31,2,.59,2.93.83q29.26,7.51,58.54,15c16.81,4.26,24.17,15.44,21.38,32.54-1,6.27-1.86,12.58-2.8,19,6.38-1.12,6.88-1.77,6.07-7.16q-3.63-24.21,17-37.39c4.37-2.79,8.82-5.5,13.42-7.88,2.43-1.26,3.07-2.77,3-5.38C267.33,103.39,234.52,75.82,198.86,81.16ZM112,252.74a64.53,64.53,0,0,0-.52,6.63c.43,14.4-2.93,27.6-11.45,39.46-1.61,2.25-2.12,5.54-2.41,8.43A134.64,134.64,0,0,0,96.78,325c.27,8-2.1,14.64-7.77,20.19-2.46,2.41-3.36,5.38-3.49,8.79-.18,4.82-.93,9.63-.93,14.45,0,11.5-2.22,22.24-9.62,31.44a3.73,3.73,0,0,0-.9,1.55,3.46,3.46,0,0,0,.12,2.29c1.67,2.46,3.52,4.8,5.78,7.81l40-156.73ZM369.7,181c-.83-4-4.22-6.67-8.85-6.6a17,17,0,0,0-2.35.46c-25.4,8.08-50.82,16.11-76.15,24.39-2.13.7-4.19,2.85-5.37,4.86-1.74,3-.87,6.17,1.42,8.7,2.62,2.91,5.9,3.42,9.59,2.24q25.68-8.22,51.37-16.38c8.27-2.64,16.58-5.18,24.81-7.95A8.07,8.07,0,0,0,369.7,181Zm-177.12,9.73a16.63,16.63,0,0,0-2.24-.84c-25.85-6.5-51.69-13-77.6-19.32-2.17-.53-5.06.22-7.12,1.31-3,1.6-4,4.79-3.37,8.15.7,3.85,3.22,6,7,6.95q26.16,6.51,52.3,13.09c8.43,2.11,16.83,4.31,25.28,6.29a8.08,8.08,0,0,0,9.82-5.36C198,197.16,196.55,193.1,192.58,190.72Zm184.31,13c-.7-4-4.07-6.77-8.92-6.8-.6.14-1.9.39-3.15.78q-10.71,3.35-21.4,6.75Q317,212.81,290.66,221.2c-5,1.6-7.55,4.79-7.27,9.05.38,5.86,5.71,9.18,11.9,7.23,16.22-5.11,32.42-10.31,48.63-15.47,9-2.85,18-5.63,26.9-8.55C375.47,211.94,377.68,208.2,376.89,203.69ZM95.78,417.93c5.88-1.91,10.89-3.67,16-5.12a5.44,5.44,0,0,0,4.3-4.53q15.39-60.9,31-121.75c2-7.68,3.91-15.36,5.93-23.32L136.34,259C122.83,311.92,109.41,364.49,95.78,417.93Zm337.13-66.24a205.41,205.41,0,0,1-108.66,34.67c-15.53.49-27.05-6.69-33.69-20.69a690.34,690.34,0,0,1-50.7-149.53c-.28-1.29-.61-2.56-1-4.08-4.08,1.33-7.8,2.38-11.37,3.79a4.18,4.18,0,0,0-2.07,2.82c-1.62,10.13-3.16,20.28-4.54,30.45-2.41,17.67-16.39,27.2-33.62,22.81-5.82-1.49-11.65-2.94-17.83-4.5-1.68,6.49-3.33,12.76-4.93,19.05q-16.82,66-33.57,132c-1.12,4.41-3.44,7.09-7.87,8.47-11.64,3.61-23.19,7.51-34.78,11.29-6,2-8.67,1.13-12.49-4q-9.24-12.33-18.45-24.67C54,405,53.3,401.81,56.9,397.36c10-12.38,11.27-27,11.68-41.91,0-.24.06-.48,0-.72-.47-8.27,2-15.44,8-21.24,2.44-2.35,3-5.21,3.1-8.5.23-8.21.7-16.41,1.27-24.61a14.69,14.69,0,0,1,1.66-5.44,96.13,96.13,0,0,1,6.28-11c3.76-5.39,5-11.29,5.16-17.71.09-5.07.56-10.14,1.06-15.18.2-2-.38-2.82-2.29-3.27-5.88-1.39-11.71-2.93-17.56-4.42-15.74-4-23.86-19-18.33-34.34Q70,172.93,83.46,137c4.65-12.52,17-19,30-16,6.08,1.39,12.11,3,18.18,4.55,8.5-41.51,47.54-64.95,83.05-61.62,32.87,3.07,65.69,28.34,70.28,70.94,1-.33,2-.57,2.93-.94A214,214,0,0,1,358.11,119c14.81-.68,27.86,7.26,34.32,21a696.54,696.54,0,0,1,51,151.71c1.71,8,3.39,16.07,4.65,24.18C450.46,330.86,445.59,343.29,432.91,351.69Z"/></g></svg>