<svg xmlns="http://www.w3.org/2000/svg" viewBox="0 0 500 500"><defs><style>.cls-1{fill:#25b34b;}</style></defs><g id="RDV"><g id="RDV-2" data-name="RDV"><path class="cls-1" d="M169.5,334.07h55.57V279.32H169.5ZM86.15,279.32v55.57H140.9V279.32Zm54.75-27.78V196.78H86.15v54.76ZM169.5,196v54.75h55.57V196Zm83.36,0v54.75h54.75V196ZM336.22,71.75V44a15,15,0,0,0-13.08-14.7h0c-7.35,0-13.89,5.72-13.89,13.07V98.72c0,7.35,5.72,13.07,13.07,13.89h.82A14.32,14.32,0,0,0,337,98.72V97.9C336.22,89.73,336.22,80.74,336.22,71.75Zm-222.29-.82V44c.82-7.35-5.72-14.7-13.07-14.7C93.5,28.44,87,35,86.15,42.33V98.72a15,15,0,0,0,13.07,14.71c7.36.81,13.9-5.72,14.71-13.08V70.93Zm-83.35,42.5c0-36,41.68-28.6,41.68-28.6V97.9a28.18,28.18,0,0,0,24.51,27.79A27.73,27.73,0,0,0,127,104.44a126.1,126.1,0,0,0,.82-18V84H294.54V97.9a27.83,27.83,0,0,0,55.57,3.27V84c18-3.27,41.68,3.27,41.68,27.78V222.12H366.45c-3.27,0-2.45-2.45-2.45-4.09V166.55H58.36V353.69c0,6.54,0,6.54,6.54,6.54H225.07V388h-161c-15.52.82-30.23-7.35-32.68-22.88v-3.27ZM474.32,369.21c-.81,9.81-1.63,15.53-4.08,22.89-17.16,58.84-78.45,93.16-137.29,76.81s-93.17-77.63-76-137.29c16.34-58.84,77.63-93.16,137.29-76.81a110.07,110.07,0,0,1,80.08,96.43ZM363.18,446c45.77,0,83.36-36.77,83.36-82.54S409.76,280.14,364,280.14s-83.36,36.77-83.36,82.54h0c0,44.94,36.78,82.54,82.54,83.35Zm0-84.17H404a15,15,0,0,1,14.71,13.89c0,1.64,0,3.27-.81,4.09a13.25,13.25,0,0,1-13.08,9.8H348.47c-7.35,0-13.07-5.72-13.89-13.07V321a13.92,13.92,0,0,1,27.79-1.64v36Z"/></g></g></svg>