<svg xmlns="http://www.w3.org/2000/svg" viewBox="0 0 500 500"><defs><style>.cls-1{fill:#d7d6d6;}</style></defs><g id="Litige"><path class="cls-1" d="M85.92,87.31a17.15,17.15,0,0,0-17.3,17.3v242.2c0,9.89,7.42,16.89,17.3,16.89h131L247.8,409c.82,2.06,3.3,3.29,5.77,3.29a7.54,7.54,0,0,0,5.76-3.29l32.13-45.31H422a16.45,16.45,0,0,0,16.89-16.89V104.61A17.05,17.05,0,0,0,422,87.31ZM254,281.73c8.24,0,15.24,7.42,15.24,15.65v2.89a15.24,15.24,0,0,1-30.48,0v-2.89A15.3,15.3,0,0,1,254,281.73Zm-.41-145.81c13.18,0,24.3,11.94,22.65,24.71l-7,93.5A16.27,16.27,0,0,1,252.33,269a15.5,15.5,0,0,1-14-14.83l-7.42-93.5C229.68,147.86,240.8,135.92,253.57,135.92Z"/></g></svg>