<?xml version="1.0" encoding="utf-8"?>
<!-- Generator: Adobe Illustrator 24.3.0, SVG Export Plug-In . SVG Version: 6.00 Build 0)  -->
<svg version="1.1" id="Calque_1" xmlns="http://www.w3.org/2000/svg" xmlns:xlink="http://www.w3.org/1999/xlink" x="0px" y="0px"
	 viewBox="0 0 500 500" style="enable-background:new 0 0 500 500;" xml:space="preserve">
<style type="text/css">
	.st0{fill:#32B9A9;}
</style>
<g id="WalkIn">
	<g id="Walkin_Bleu">
		<path class="st0" d="M54.29,248.8c0.85-4.1,1.33-8.27,1.46-12.46l5.14-46.93c-0.12-1.5,0.13-3.01,0.73-4.39
			c0.73-8.8,6.6-16.13,14.66-18.33c27.13-8.8,53.52-18.33,80.65-27.86c5.67-2.15,11.57-3.63,17.59-4.4
			c10.54-0.65,20.88,3.06,28.6,10.26c3.66,2.93,5.86,7.33,8.06,11c9.53,16.86,18.33,33.72,27.86,50.59c0.73,1.46,1.47,2.2,2.93,2.2
			c14.67,5.13,29.33,11,44,16.13c9.53,3.66,16.13,13.19,15.4,23.46c-1.48,9.77-9.92,16.96-19.8,16.86c-2.93-0.73-5.86-1.47-8.06-2.2
			l-51.32-19.8c-2.2-0.73-4.4-2.2-6.6-2.93c-2.2-1.46-4.4-3.66-5.13-5.86c-2.94-5.14-5.87-10.27-8.8-16.13l-0.73,1.46
			c-7.33,16.87-15.4,33.73-22.73,50.59c-0.73,0.84-0.73,2.09,0,2.93c24.93,42.53,47.65,85.05,71.11,128.3
			c6.6,12.47,1.47,28.6-11.73,35.2c-0.55,0.08-1.07,0.33-1.46,0.73c-12.97,5.16-27.73-0.62-33.74-13.22
			c-6.6-13.93-14.66-27.12-22-40.32c-9.53-17.6-19.06-34.46-29.33-52.05c0-0.74-0.73-1.47-0.73-2.2c-0.56,0.59-0.83,1.39-0.73,2.2
			l-38.13,87.24c-0.56,0.59-0.83,1.39-0.73,2.2c-3.67,10.26-14.66,16.13-24.93,14.66H77c-0.81,0.1-1.61-0.17-2.2-0.73
			c-7.79-4.21-12.59-12.41-12.46-21.26c0.01-4.49,0.76-8.95,2.2-13.2l52.79-123.17c0.73-1.11,0.73-2.55,0-3.66
			c-8.07-16.13-8.07-35.19-1.47-52.06c4.4-10.26,8.8-21.26,13.2-31.52l0.73-2.2h-1.47l-28.59,9.53c-0.73,0-1.46,1.47-1.46,2.2
			c-1.47,11.73-2.2,24.19-3.67,35.92c-0.73,5.13-0.73,10.27-1.47,16.13c-1.46,7.33-6.59,13.2-13.93,14.66
			c-11.11,2.13-21.87-5.03-24.2-16.1v-0.74c0.1-0.81-0.17-1.61-0.73-2.2L54.29,248.8z M199.45,50.8l-3.67,0.73
			C175.26,55.25,161.33,75.78,165,96.3c3.72,20.61,23.36,34.36,44,30.8c17.45-2.85,30.91-16.9,33-34.46
			c1.42-18.34-10.2-35.16-27.86-40.32c-2.2-0.74-4.4-0.74-6.59-1.47L199.45,50.8z M354.15,354.32l107-106.3L353.41,146.89
			c-10.83-10.06-27.68-9.74-38.12,0.73c-10.13,10.79-9.6,27.75,1.19,37.88c0.09,0.08,0.18,0.17,0.27,0.25l66.72,63.05L316,316.25
			c-10.26,10.26-10.26,27.86,0,38.12s27.86,11,38.13,0L354.15,354.32z"/>
	</g>
</g>
</svg>
