<svg id="Opportunités" xmlns="http://www.w3.org/2000/svg" viewBox="0 0 500 500"><defs><style>.cls-1{fill:#faa700;}</style></defs><g id="Opportunités-2" data-name="Opportunités"><path class="cls-1" d="M449.15,413.56l-48.71,49.49a51.14,51.14,0,0,1-7.07-6.28C358,421.41,323.45,386.06,287.31,351.49a25.76,25.76,0,0,1-9.43-24.35V315.35c-43.21,25.14-88,30.64-133.56,13.36A144.74,144.74,0,0,1,65,258.79C30.4,194.36,47.69,113.44,105.83,68.66,163.18,26.24,241.74,28.59,296,75c50.28,44,77.78,140.63,11.78,215.26l.79,1.57c14.14-2.35,23.57,5.5,33,14.93C374.51,340.49,446.79,410.41,449.15,413.56Zm-176.77-297C232.31,75,166.32,74.16,124.68,114.23l-1.57,1.57c-46.35,47.92-31.43,113.92-4.71,138.27,16.49-6.28,32.21-11.78,47.92-18.07,3.93-1.57,11,0,10.21-7.07a28.33,28.33,0,0,0-4.71-15.71c-13.36-11.79-19.64-28.28-17.28-45.57a46.1,46.1,0,0,1,40.85-42.42c19.64-1.57,38.49,14.92,43.21,36.14,4.71,18.85-1.57,37.71-15.71,51.06a30.88,30.88,0,0,0-4.72,16.5c0,2.36,6.29,5.5,10.22,6.29a101.69,101.69,0,0,1,44.78,20.42C308.52,223.43,312.45,158.22,272.38,116.59Z"/></g></svg>