<svg xmlns="http://www.w3.org/2000/svg" viewBox="0 0 500 500"><defs><style>.cls-1{fill:#e11b22;}</style></defs><g id="Potentiel"><path class="cls-1" d="M384.34,88.4c-71.41-60.74-194.25-69.94-278.69,13.54-80,79.07-84.44,209.87-1.35,294.58,77.68,79.2,208.18,85.92,293.88,3.07,81-78.32,82.17-201.71,16.33-281.21L386,149c-.35-.55.06.16.54.82,26.8,36.64,37.64,77.42,31.81,122.54-4.46,34.49-18.64,64.59-42,90.15-26.88,29.45-60.45,46.88-99.89,52.75-3.08.46-4.32,1.64-5.52,4.33-5.5,12.26-17.94,19.31-31.72,18.32-12.2-.87-23.09-9.9-26.64-22.49-.85-3-2.62-4-5.26-4.79a167.39,167.39,0,0,1-120.93-144C82.91,232.39,90,200.25,106.2,170a12.27,12.27,0,0,0,.94-7.73c-3.82-17.95,9.72-36.94,27.82-37.4,6.2-.16,10.22-2.61,14.62-6.08,30.8-24.22,66-36.28,105-36.1a157.18,157.18,0,0,1,74.14,18.49c9.14,4.89,17.82,10.64,25.55,15.29ZM340,192.82c17.41,27.82,22,57.21,12.26,88.63a7.12,7.12,0,0,0,.8,4.92c6.27,11.6,5.79,23-1.61,33.69-7.6,11-18.66,14.54-31.7,13a8.92,8.92,0,0,0-5.67,1.26c-21,14.84-44.2,21.8-70,19.57-29.48-2.55-54-15.18-72.26-38.19-25.06-31.64-30.1-67.11-15.86-104.93,17.21-45.71,69.85-73.85,117.45-63.24a111.66,111.66,0,0,1,35.73,14.74l30.37-29.56C283.07,90.2,208,97.38,161.8,135.86c9,12.29,10.68,25.4,1.51,38C153,188,138.89,190.49,123.1,183.62c-44.28,84.89,5.72,186,91.92,206.76,13.12-20.4,44-21.3,56.61,4.65,56.05-9.92,96.88-39.87,117.55-93.47,19-49.16,10.92-95.71-19.18-138.92ZM324.72,208c-6.55,6.48-12.83,12.62-19,18.84-12.32,12.39-24.48,24.93-36.92,37.19-11.12,11-28.42,8.28-34.89-5.18-4.1-8.54-2.06-18.16,5.64-25.81q25.36-25.19,50.85-50.25c1.49-1.47,3.53-2.39,5.73-3.84-39.26-22.83-85.84-12.68-111.5,22.95-24.71,34.3-18.85,82.67,13.53,111,31.84,27.84,76.51,24.67,101,5.62-6.33-11.72-6.55-23.45,1.28-34.49s19.06-14.52,32.49-12.93C339.27,249,335.92,228.18,324.72,208Z"/></g></svg>