<svg xmlns="http://www.w3.org/2000/svg" viewBox="0 0 500 500"><defs><style>.cls-1,.cls-2{fill:#d8c330;}.cls-1{fill-rule:evenodd;}</style></defs><g id="Relance"><path class="cls-1" d="M328.73,448c61.13,11.93,123.76-46.22,123.76-46.22s10.44-14.91,3-26.84-70.08-58.15-70.08-58.15-16.4-10.44-29.82,0C343.64,327.19,310.84,357,310.84,357s-13.42,4.47-41.75-16.41c-16.4-10.43-89.46-83.5-99.9-98.41-20.88-29.82-16.4-43.24-16.4-43.24s31.31-32.8,40.25-44.73c10.44-11.93,1.5-28.33,1.5-28.33s-47.72-62.62-59.65-71.57c-10.43-7.46-26.84,3-26.84,3S51.39,121.43,61.83,181.07C81.21,279.48,230.32,428.59,328.73,448Z"/><path class="cls-2" d="M372.72,203.66a76.27,76.27,0,1,0-76.27,76.27A76.34,76.34,0,0,0,372.72,203.66Zm-87.21,0V165.35a10.94,10.94,0,1,1,21.88,0v27.71h20.52a10.95,10.95,0,1,1,0,21.89H296.79C290.64,214.6,285.51,209.82,285.51,203.66Z"/></g></svg>