<?xml version="1.0" encoding="utf-8"?>
<!-- Generator: Adobe Illustrator 24.3.0, SVG Export Plug-In . SVG Version: 6.00 Build 0)  -->
<svg version="1.1" xmlns="http://www.w3.org/2000/svg" xmlns:xlink="http://www.w3.org/1999/xlink" x="0px" y="0px"
	 viewBox="0 0 500 500" style="enable-background:new 0 0 500 500;" xml:space="preserve">
<style type="text/css">
	.st0{fill:#25B34B;}
	.st1{fill:url(#SVGID_1_);}
	.st2{fill:url(#SVGID_2_);}
	.st3{fill:#32B9A9;}
	.st4{fill:url(#SVGID_3_);}
	.st5{fill:#C1529E;}
	.st6{fill:#FAA700;}
	.st7{fill:url(#SVGID_4_);}
	.st8{fill-rule:evenodd;clip-rule:evenodd;fill:#E11D22;}
	.st9{clip-path:url(#SVGID_6_);fill-rule:evenodd;clip-rule:evenodd;}
	.st10{fill:#FABB2A;}
	.st11{fill-rule:evenodd;clip-rule:evenodd;fill:none;stroke:#FABB2A;stroke-width:0.8127;stroke-miterlimit:10;}
	.st12{fill:none;stroke:url(#SVGID_7_);stroke-width:5.4178;stroke-linecap:round;stroke-miterlimit:10;}
	.st13{clip-path:url(#SVGID_9_);fill-rule:evenodd;clip-rule:evenodd;}
	.st14{fill-rule:evenodd;clip-rule:evenodd;fill:none;stroke:#FABB2A;stroke-width:0.8154;stroke-miterlimit:10;}
	.st15{fill:none;stroke:url(#SVGID_10_);stroke-width:5.436;stroke-linecap:round;stroke-miterlimit:10;}
	.st16{fill:url(#SVGID_11_);}
	.st17{fill:url(#SVGID_12_);}
	.st18{fill:#D8C330;}
	.st19{fill:#2EA6DE;}
	.st20{fill:#E11B22;}
	.st21{fill:#ED145B;}
</style>
<g id="Graphique_x5F_RDV">
</g>
<g id="Graphique_x5F_WalkIn">
</g>
<g id="Graphique_x5F_Vente_1_">
</g>
<g id="Graphique_x5F_Opportunités">
</g>
<g id="Potentiel_x5F_ONT">
</g>
<g id="Potentiel_x5F_QC">
</g>
<g id="Compte_x5F_Rebours">
</g>
<g id="Décompte_x5F_Date">
</g>
<g id="Appels">
</g>
<g id="WalkIn">
</g>
<g id="Vente">
</g>
<g id="Opportunités">
</g>
<g id="Potentiel">
</g>
<g id="RDV">
</g>
<g id="Décompte">
</g>
<g id="Dates">
	<g id="Calendier_1_">
		<path class="st21" d="M169.78,300.91v-63.15h-64.03v64.02L169.78,300.91z M219.77,236.89v64.02h64.9v-64.02L219.77,236.89z
			 M334.67,236.89v64.02h64.02v-64.02L334.67,236.89z M169.78,397.39v-64.02h-64.03v64.02H169.78z M219.77,333.36v64.02h64.9v-64.02
			H219.77z M334.67,333.36v64.02h64.02v-64.02H334.67z M396.06,92.17c0-10.52,0-21.05,0-32.45c0-8.77-7.02-16.66-15.79-16.66
			s-16.66,6.14-16.66,14.91v0.88c0,21.93,0,42.98,0,64.9c0,8.77,7.02,15.79,15.79,15.79h0.88c8.77,0,15.79-7.02,16.66-15.79
			c0,0,0,0,0-0.88L396.06,92.17z M138.21,92.17c0-10.52,0-21.05,0-30.7c0.88-8.77-6.14-16.66-14.91-17.54s-16.66,6.14-16.66,14.91
			v0.88c0,21.93,0,42.98,0,64.9c0,8.77,7.89,15.79,16.66,15.79s15.79-7.89,15.79-16.66C138.21,113.22,138.21,102.7,138.21,92.17z
			 M79.45,463.16c-18.42,0-38.59-10.52-38.59-30.69c0,0,0-1.75,0-0.88V140.41c0-27.19,18.42-32.45,29.82-32.45h18.42v15.79
			c0,16.66,12.28,30.7,28.94,32.45c16.66,1.75,31.57-8.77,35.08-24.56c0.88-7.02,0.88-14.03,0.88-20.17c0-0.88,0-1.75,0-2.63h193.83
			c0,0.88,0,1.75,0,2.63c0,7.02,0,14.03,0.88,20.17c3.51,15.79,18.42,27.19,35.08,24.56c16.66-1.75,28.94-15.79,28.94-32.45v-15.79
			h12.28c18.42,0,36.84,10.52,36.84,30.7v293.81v1.75c0,18.42-18.42,28.94-38.59,28.94L79.45,463.16L79.45,463.16z M419.55,428.88
			c7.02,0,6.33,0,6.33-6.06V205.31H74.18v216.63c0,7.02,0,7.02,7.02,7.02h337.67L419.55,428.88z"/>
	</g>
</g>
</svg>
