<svg xmlns="http://www.w3.org/2000/svg" viewBox="0 0 500 500"><defs><style>.cls-1,.cls-2{fill:#e11b22;}.cls-1{fill-rule:evenodd;}</style></defs><g id="Retour_Appel"><path class="cls-1" d="M325,450.86c61.81,12.06,125.14-46.74,125.14-46.74s10.55-15.08,3-27.14-70.87-58.8-70.87-58.8-16.58-10.56-30.15,0c-12.07,10.55-45.24,40.71-45.24,40.71s-13.57,4.52-42.21-16.59c-16.59-10.55-90.47-84.43-101-99.51-21.11-30.16-16.59-43.73-16.59-43.73s31.67-33.17,40.71-45.23c10.56-12.06,1.51-28.65,1.51-28.65S141.08,61.86,129,52.81c-10.55-7.54-27.14,3-27.14,3S44.59,120.66,55.14,181C74.74,280.48,225.52,431.26,325,450.86Z"/><path class="cls-2" d="M359.4,268.42h1.36a5.4,5.4,0,0,0,5.43-5.43h0v-39.8a52.83,52.83,0,0,0-52.77-52.77h-18.1V146.9a5.4,5.4,0,0,0-5.42-5.43h0a5.37,5.37,0,0,0-3.62,1.36l-63.33,57a5.43,5.43,0,0,0-.45,7.54l.45.45,63.18,57.29a5.48,5.48,0,0,0,7.69-.45,5.41,5.41,0,0,0,1.35-3.62V237.51H319.3a36.12,36.12,0,0,1,34.83,26.84A5.34,5.34,0,0,0,359.4,268.42Z"/></g></svg>