<svg xmlns="http://www.w3.org/2000/svg" viewBox="0 0 500 500"><defs><style>.cls-1{fill:#d7d6d6;fill-rule:evenodd;}</style></defs><g id="Appel_Gris"><path class="cls-1" d="M325.32,451.15c62,12.09,125.52-46.88,125.52-46.88s10.58-15.12,3-27.22-71.07-59-71.07-59-16.64-10.58-30.25,0c-12.09,10.59-45.36,40.83-45.36,40.83s-13.61,4.54-42.34-16.63c-16.64-10.59-90.74-84.69-101.32-99.81-21.17-30.24-16.64-43.85-16.64-43.85s31.76-33.27,40.83-45.37c10.59-12.1,1.52-28.73,1.52-28.73S140.84,61,128.74,51.93c-10.59-7.57-27.22,3-27.22,3S44.05,120,54.64,180.46C74.3,280.27,225.52,431.49,325.32,451.15Z"/></g></svg>