<svg xmlns="http://www.w3.org/2000/svg" viewBox="0 0 500 500"><defs><style>.cls-1{fill:#faa700;}</style></defs><g id="Opportunités"><g id="Opportunités-2" data-name="Opportunités"><path class="cls-1" d="M455.9,415.65l-50.18,51a52.17,52.17,0,0,1-7.28-6.47c-36.42-36.42-72-72.84-109.26-108.45a26.53,26.53,0,0,1-9.71-25.09V314.48c-44.51,25.9-90.64,31.57-137.58,13.76a149.05,149.05,0,0,1-81.74-72C24.54,189.85,42.34,106.49,102.23,60.36c59.08-43.7,140-41.27,195.86,6.48,51.79,45.32,80.12,144.86,12.13,221.75l.81,1.62c14.57-2.43,24.28,5.66,34,15.37C379,340.38,453.47,412.41,455.9,415.65ZM273.81,109.73C232.53,66.84,164.55,66,121.66,107.3L120,108.92c-47.75,49.37-32.38,117.35-4.86,142.44,17-6.48,33.18-12.14,49.37-18.62,4-1.61,11.33,0,10.52-7.28a29.2,29.2,0,0,0-4.86-16.19c-13.75-12.14-20.23-29.13-17.8-46.94a47.5,47.5,0,0,1,42.08-43.7C214.73,117,234.15,134,239,155.86c4.85,19.42-1.62,38.85-16.19,52.6a31.87,31.87,0,0,0-4.86,17c0,2.43,6.48,5.67,10.52,6.47a104.79,104.79,0,0,1,46.14,21C311,219.8,315.08,152.62,273.81,109.73Z"/></g></g></svg>