<svg xmlns="http://www.w3.org/2000/svg" viewBox="0 0 500 500"><defs><style>.cls-1{fill:#25b34b;}</style></defs><g id="RDV"><g id="RDV-2" data-name="RDV"><path class="cls-1" d="M177.15,332.51h52.64V280.64H177.15ZM98.2,280.64v52.64h51.86V280.64Zm51.86-26.31V202.46H98.2v51.87Zm27.09-52.64v51.86h52.64V201.69Zm79,0v51.86H308V201.69ZM335.06,84V57.72a14.19,14.19,0,0,0-12.39-13.94h0c-7,0-13.16,5.42-13.16,12.39v53.41c0,7,5.42,12.38,12.39,13.16h.77a13.57,13.57,0,0,0,13.16-13.16v-.78C335.06,101.06,335.06,92.55,335.06,84Zm-210.54-.77V57.72c.77-7-5.42-13.94-12.39-13.94C105.16,43,99,49.2,98.2,56.17v53.41a14.18,14.18,0,0,0,12.38,13.93c7,.78,13.16-5.42,13.94-12.38V83.26Zm-79,40.25C45.56,89.45,85,96.42,85,96.42V108.8a26.69,26.69,0,0,0,23.22,26.32A26.26,26.26,0,0,0,136.9,115a120.51,120.51,0,0,0,.77-17V95.65H295.58V108.8a26.37,26.37,0,1,0,52.64,3.1V95.65c17-3.1,39.47,3.09,39.47,26.31v104.5h-24c-3.1,0-2.32-2.32-2.32-3.87V173.82H71.88V351.08c0,6.2,0,6.2,6.19,6.2H229.79v26.31H77.3c-14.71.78-28.64-7-31-21.67v-3.1ZM465.87,365.79c-.77,9.29-1.54,14.71-3.87,21.67-16.25,55.74-74.31,88.25-130,72.77s-88.24-73.54-72-130c15.48-55.73,73.53-88.24,130-72.76a104.28,104.28,0,0,1,75.85,91.34ZM360.6,438.55c43.35,0,79-34.83,79-78.18s-34.84-78.95-78.18-78.95-79,34.83-79,78.18h0c0,42.57,34.84,78.18,78.18,78.95Zm0-79.73h38.71A14.24,14.24,0,0,1,413.24,372c0,1.55,0,3.1-.78,3.87a12.54,12.54,0,0,1-12.38,9.29H346.67c-7,0-12.39-5.42-13.16-12.38V320.12a13.18,13.18,0,0,1,26.32-1.55v34.06Z"/></g></g></svg>