<svg xmlns="http://www.w3.org/2000/svg" viewBox="0 0 500 500"><defs><style>.cls-1{fill:#2ea6de;}</style></defs><g id="WalkIn"><g id="Walkin_Bleu" data-name="Walkin Bleu"><path class="cls-1" d="M54.29,248.8a72.61,72.61,0,0,0,1.46-12.46l5.14-46.93a9.3,9.3,0,0,1,.73-4.39c.73-8.8,6.6-16.13,14.66-18.33,27.13-8.8,53.52-18.33,80.65-27.86a77.1,77.1,0,0,1,17.59-4.4,38.46,38.46,0,0,1,28.6,10.26c3.66,2.93,5.86,7.33,8.06,11,9.53,16.86,18.33,33.72,27.86,50.59.73,1.46,1.47,2.2,2.93,2.2,14.67,5.13,29.33,11,44,16.13,9.53,3.66,16.13,13.19,15.4,23.46a19.82,19.82,0,0,1-19.8,16.86c-2.93-.73-5.86-1.47-8.06-2.2l-51.32-19.8c-2.2-.73-4.4-2.2-6.6-2.93-2.2-1.46-4.4-3.66-5.13-5.86-2.94-5.14-5.87-10.27-8.8-16.13l-.73,1.46c-7.33,16.87-15.4,33.73-22.73,50.59a2.23,2.23,0,0,0,0,2.93c24.93,42.53,47.65,85.05,71.11,128.3,6.6,12.47,1.47,28.6-11.73,35.2a2.55,2.55,0,0,0-1.46.73A26.52,26.52,0,0,1,202.38,424c-6.6-13.93-14.66-27.12-22-40.32-9.53-17.6-19.06-34.46-29.33-52.05,0-.74-.73-1.47-.73-2.2a2.69,2.69,0,0,0-.73,2.2l-38.13,87.24a2.7,2.7,0,0,0-.73,2.2c-3.67,10.26-14.66,16.13-24.93,14.66H77a2.71,2.71,0,0,1-2.2-.73,23.77,23.77,0,0,1-12.46-21.26,41.43,41.43,0,0,1,2.2-13.2l52.79-123.17a3.33,3.33,0,0,0,0-3.66c-8.07-16.13-8.07-35.19-1.47-52.06,4.4-10.26,8.8-21.26,13.2-31.52l.73-2.2h-1.47l-28.59,9.53c-.73,0-1.46,1.47-1.46,2.2-1.47,11.73-2.2,24.19-3.67,35.92-.73,5.13-.73,10.27-1.47,16.13-1.46,7.33-6.59,13.2-13.93,14.66A20.74,20.74,0,0,1,55,250.27v-.74a2.71,2.71,0,0,0-.73-2.2Zm145.16-198-3.67.73C175.26,55.25,161.33,75.78,165,96.3a38.13,38.13,0,0,0,44,30.8,39.68,39.68,0,0,0,33-34.46,38.87,38.87,0,0,0-27.86-40.32c-2.2-.74-4.4-.74-6.59-1.47Zm154.7,303.52,107-106.3L353.41,146.89a27.45,27.45,0,0,0-38.12.73,26.8,26.8,0,0,0,1.46,38.13l66.72,63.05L316,316.25c-10.26,10.26-10.26,27.86,0,38.12s27.86,11,38.13,0Z"/></g></g></svg>