<svg xmlns="http://www.w3.org/2000/svg" viewBox="0 0 500 500"><defs><style>.cls-1{fill:#d7d6d6;}</style></defs><g id="Désactivé"><path class="cls-1" d="M252.45,67.5c-102.87,0-186.27,83.4-186.27,186.27s83.4,186.28,186.27,186.28,186.27-83.4,186.27-186.28S355.33,67.5,252.45,67.5Zm0,332.05A145.78,145.78,0,1,1,398.23,253.77,145.78,145.78,0,0,1,252.45,399.55Z"/><path class="cls-1" d="M322,295.17h-139a18.22,18.22,0,0,0,0,36.44H322a18.22,18.22,0,1,0,0-36.44Z"/><path class="cls-1" d="M171,235.48a10.94,10.94,0,0,0,15.46,0l11.37-11.36,11.36,11.36A10.93,10.93,0,0,0,224.61,220l-11.36-11.36,11.36-11.36a10.93,10.93,0,0,0-15.46-15.46L197.79,193.2l-11.37-11.36A10.93,10.93,0,1,0,171,197.3l11.36,11.36L171,220A10.93,10.93,0,0,0,171,235.48Z"/><path class="cls-1" d="M280.3,235.48a10.94,10.94,0,0,0,15.46,0l11.36-11.36,11.36,11.36A10.93,10.93,0,1,0,333.94,220l-11.36-11.36,11.36-11.36a10.93,10.93,0,1,0-15.46-15.46L307.12,193.2l-11.36-11.36A10.93,10.93,0,1,0,280.3,197.3l11.36,11.36L280.3,220A10.93,10.93,0,0,0,280.3,235.48Z"/></g></svg>