<svg xmlns="http://www.w3.org/2000/svg" viewBox="0 0 500 500"><defs><style>.cls-1{fill:#d7d6d6;}</style></defs><g id="Liste_Noir"><path class="cls-1" d="M249.81,66.18C148.4,66.18,66.18,148.4,66.18,249.81S148.4,433.44,249.81,433.44s183.63-82.22,183.63-183.63S351.22,66.18,249.81,66.18Zm79.71,71.46-79.71,79.71L170.1,137.64a137.07,137.07,0,0,1,159.42,0ZM137.64,170.1l79.71,79.71L137.6,329.52a137.16,137.16,0,0,1,0-159.42ZM170.06,362l79.7-79.7L329.52,362a137.13,137.13,0,0,1-159.46,0ZM362,329.56l-79.7-79.75L362,170.1a137.13,137.13,0,0,1,0,159.46Z"/></g></svg>