<?xml version="1.0" encoding="utf-8"?>
<!-- Generator: Adobe Illustrator 24.3.0, SVG Export Plug-In . SVG Version: 6.00 Build 0)  -->
<svg version="1.1" id="Calque_1" xmlns="http://www.w3.org/2000/svg" xmlns:xlink="http://www.w3.org/1999/xlink" x="0px" y="0px"
	 viewBox="0 0 500 500" style="enable-background:new 0 0 500 500;" xml:space="preserve">
<style type="text/css">
	.st0{fill:#32B9A9;}
</style>
<g id="Décompte_1_">
	<path class="st0" d="M435.43,284.2c-0.06,0-0.12,0-0.18,0c0.15-32.95-8.53-66.3-26.99-96.41l-4.09-6.54
		c4.9-4.9,9.81-9.81,13.9-14.71c0.82-0.82,0.82-0.82,0.82-0.82c8.17-8.99,8.17-23.7-0.82-31.88c-7.36-8.17-15.53-16.35-23.7-23.7
		c-8.17-8.99-22.07-8.99-31.06,0c-5.72,4.09-9.81,8.99-13.9,13.08c-18.8-7.36-37.6-13.9-55.58-20.43c-1.63-0.82-3.27-2.45-3.27-4.09
		c0-7.36,0-14.71,0-22.89c4.09,0,7.36,0,10.63,0c9.81,0,18.8-6.54,21.25-16.35c3.27-12.26-4.09-24.52-15.53-27.79
		c-1.63-0.82-11.44-1.63-13.08-1.63H207.2c-7.36,0-15.53,1.63-17.98,1.63c-7.36,3.27-12.26,10.63-13.08,18.8
		c-0.82,12.26,8.17,22.89,20.43,23.7c4.09,0.82,8.17,0.82,13.08,0.82c0.82,8.17,0.82,15.53,0,23.7c0,1.63-4.09,4.09-6.54,4.9
		C132,122.39,78.05,182.05,67.42,254.8c-2.85,19.51-2.53,38.76,0.57,57.26c13.44,88.82,90.11,156.9,182.68,156.9
		c2.04,0,4.06-0.04,6.08-0.11l2.75,0.11c1.54-0.07,3.31-0.25,5.28-0.53C360.22,461.23,435.43,381.5,435.43,284.2z M255.41,143.65
		c65.39-4.09,134.87,53.95,133.23,133.23H255.41V143.65z"/>
</g>
</svg>
