<svg xmlns="http://www.w3.org/2000/svg" viewBox="0 0 500 500"><defs><style>.cls-1{fill:#393838;}</style></defs><g id="Arrow"><path class="cls-1" d="M437.09,408.35h0v-89a19.27,19.27,0,0,0-5.39-13.08c-3.22-3.21-8.46-5.61-13.08-5.39s-9.71,1.77-13.07,5.39a19.33,19.33,0,0,0-5.39,13.08v44.4l-.6-.59-34.75-34.76-42.26-42.26-39-39,28-28q21.84-21.82,43.7-43.7l36.9-36.89,8-8V175a19.2,19.2,0,0,0,5.39,13.08c3.21,3.21,8.46,5.61,13.07,5.39,4.77-.22,9.72-1.77,13.08-5.39A19.31,19.31,0,0,0,437.09,175V85.94a17.58,17.58,0,0,0-1-5.76,17.23,17.23,0,0,0-4.43-7.28c-3.29-3-7.5-5.28-12.08-5.39-.33,0-.66,0-1,0H329.57a19.19,19.19,0,0,0-13.07,5.4c-3.22,3.21-5.62,8.46-5.4,13.07.22,4.77,1.78,9.72,5.4,13.08a19.17,19.17,0,0,0,13.07,5.39H374l-.63.63-34.75,34.75q-21.12,21.12-42.26,42.26l-39,39-28-28-43.7-43.7-36.9-36.89-8-8H185.3A19.27,19.27,0,0,0,198.38,99c3.21-3.22,5.61-8.46,5.39-13.08s-1.77-9.71-5.39-13.07a19.16,19.16,0,0,0-13.08-5.4H96.25a17.6,17.6,0,0,0-6.8,1.37,16.68,16.68,0,0,0-6.28,4.06C80,76.41,77.56,81,77.78,86v89a19.25,19.25,0,0,0,5.39,13.08c3.22,3.21,8.46,5.61,13.08,5.39s9.71-1.77,13.07-5.39a19.32,19.32,0,0,0,5.4-13.08V130.6l.59.59L150.06,166l42.26,42.25,39,39-28,28-43.7,43.7-36.9,36.9-8,8v-44.4a19.23,19.23,0,0,0-5.4-13.08c-3.21-3.21-8.45-5.61-13.07-5.39s-9.72,1.77-13.08,5.39a19.38,19.38,0,0,0-5.39,13.08v89.05a17.67,17.67,0,0,0,1,5.76,17.23,17.23,0,0,0,4.43,7.28c3.29,3,7.5,5.28,12.08,5.39.33,0,.67,0,1,0H185.3a19.27,19.27,0,0,0,13.08-5.39c3.21-3.22,5.61-8.46,5.39-13.08s-1.77-9.71-5.39-13.07a19.16,19.16,0,0,0-13.08-5.4H140.83l.63-.62,34.75-34.76q21.12-21.1,42.26-42.26l39-39,28,28,43.7,43.7,36.9,36.9,8,8H329.57a19.19,19.19,0,0,0-13.07,5.4c-3.22,3.21-5.62,8.45-5.4,13.07.22,4.77,1.78,9.72,5.4,13.08a19.17,19.17,0,0,0,13.07,5.39h89.05a17.42,17.42,0,0,0,6.8-1.37,16.68,16.68,0,0,0,6.28-4.06C434.91,417.92,437.31,413.3,437.09,408.35Z"/></g></svg>