<svg xmlns="http://www.w3.org/2000/svg" viewBox="0 0 500 500"><defs><style>.cls-1{fill:#d7d6d6;}</style></defs><g id="Non_Intéressé_Gris"><path class="cls-1" d="M247.17,71.46c-96.92,0-175.71,78.79-175.71,175.71s78.79,175.7,175.71,175.7,175.7-78.79,175.7-175.7S344.08,71.46,247.17,71.46Zm-91,131A29.59,29.59,0,1,1,185.76,232,29.68,29.68,0,0,1,156.17,202.41Zm140.19,99.13h-1.11c-50.67,0-87.66,30.71-88,30.71a15.19,15.19,0,0,1-9.62,3.32,14.4,14.4,0,0,1-11.1-5.17,14.68,14.68,0,0,1,1.85-20.72C190.2,308.2,233.48,272,295.25,272h1.11a14.8,14.8,0,0,1,0,29.59ZM308.57,232a29.59,29.59,0,1,1,29.59-29.59A29.68,29.68,0,0,1,308.57,232Z"/></g></svg>