<svg xmlns="http://www.w3.org/2000/svg" viewBox="0 0 500 500"><defs><style>.cls-1{fill:#d8c330;}</style></defs><g id="Appels"><path class="cls-1" d="M462,253.72v50.83c-.27,1.18-.57,2.37-.8,3.56C458.25,323.72,444.77,336.55,429,338a206.21,206.21,0,0,1-26.19.54c-4.88-.2-6.78,1.55-8.56,5.88-20.2,49-53.7,85.32-102.85,106.24-20.63,8.78-42.12,11.74-64.31,6.6-32.69-7.57-59.54-25.13-82.68-48.81A190.32,190.32,0,0,1,102,341.81c-.94-2.5-2.24-3.29-4.86-3.22-7.5.18-15,.13-22.5,0-21.37-.23-37.25-13.77-38.83-35-1.19-16.15-.81-32.49,0-48.69.53-11.37,6.56-20.55,16.1-26.9,2.73-1.82,3.48-3.69,3.54-6.71.38-20.33,2.66-40.41,8.3-60,14.17-49.24,44.45-84.28,91.94-104,20-8.32,41-12.77,62.52-14.71,37.25-3.34,74.13-1.84,110,9.8,50.34,16.36,85.08,49.13,102.49,99.58,7.73,22.4,10.78,45.56,11.24,69.12.06,3.17,1.11,5,3.63,7.1A61.82,61.82,0,0,1,457,241.08C459.48,244.76,460.38,249.47,462,253.72ZM188.88,162.1c-.39,3.22-.74,5.12-.82,7a90.68,90.68,0,0,1-8.69,35.32C167,230.33,148,248.53,119.09,254.69c-2.56.55-3.18,1.75-3.32,4.19a181.48,181.48,0,0,0,4.84,54.53c1.48,5.91,1.86,12.6,7.12,16.92,5.66,4.66,11.15,9.66,17.36,13.46,19.46,11.88,41.35,15.43,63.62,17.21a5.1,5.1,0,0,0,3.79-1.64c12.89-16.45,43.63-17.72,59.54-4.84,12.46,10.1,12.66,24.17.23,34.32-9.93,8.11-21.72,10.14-34.13,8.54-10.81-1.39-20.29-5.48-26.87-14.81-.63-.89-2.32-1.34-3.56-1.45-15.78-1.43-31.46-3.39-46.61-8.26-5.3-1.71-10.49-3.77-16.12-5.81,14.74,24.68,47.24,50.2,76.24,60.9a76.42,76.42,0,0,0,57.61-1.11c42.06-17.4,71.61-47.66,89.84-89.09,12.87-29.24,14.89-60.06,12.12-91.42a6.34,6.34,0,0,0-2.21-4.11,146.76,146.76,0,0,0-15.5-10.42c-18-9.85-37.6-14.73-57.68-18-3.07-.49-6.18-.75-10.08-1.22,5.16,7,9.29,13.66,11,21.63-4.49-2.22-8.53-4.68-12.88-6.28q-15.81-5.79-31.85-10.89c-25.61-8.16-47.89-21.17-64.09-43.23C194.86,170.29,192.27,166.73,188.88,162.1Zm-96.3,59c3.13-19.37,7.92-38,16-55.6,17.5-38.11,46-63.67,86.51-75.26,26.57-7.59,53.62-8.62,80.87-5.36,21.42,2.57,41.78,8.71,60.33,20,31.33,19.15,50,47.79,60.54,82.17,3.41,11.07,5.67,22.49,8.5,33.92h13.54c.2-.37.32-.49.31-.6-.16-2.91-.34-5.81-.49-8.72-1.23-23.77-5.95-46.7-16-68.39-14.29-30.66-37.58-51.75-68.6-64.6-18.47-7.65-37.78-11.81-57.66-13.54-38.6-3.34-76.55-1.17-113,13.5-20,8.06-37.37,20-51.2,36.76-18.7,22.64-28,49.19-31.81,77.88-1.23,9.13-1.81,18.36-2.71,27.79Z"/></g></svg>