<?xml version="1.0" encoding="UTF-8" standalone="no"?>
<svg
   xmlns:dc="http://purl.org/dc/elements/1.1/"
   xmlns:cc="http://creativecommons.org/ns#"
   xmlns:rdf="http://www.w3.org/1999/02/22-rdf-syntax-ns#"
   xmlns:svg="http://www.w3.org/2000/svg"
   xmlns="http://www.w3.org/2000/svg"
   xmlns:sodipodi="http://sodipodi.sourceforge.net/DTD/sodipodi-0.dtd"
   xmlns:inkscape="http://www.inkscape.org/namespaces/inkscape"
   width="96.586449mm"
   height="103.01332mm"
   viewBox="0 0 96.586449 103.01332"
   version="1.1"
   id="svg120"
   inkscape:version="1.0.2-2 (e86c870879, 2021-01-15)"
   sodipodi:docname="ontario.svg">
  <defs
     id="defs114" />
  <sodipodi:namedview
     id="base"
     pagecolor="#ffffff"
     bordercolor="#666666"
     borderopacity="1.0"
     inkscape:pageopacity="0.0"
     inkscape:pageshadow="2"
     inkscape:zoom="0.35"
     inkscape:cx="-353.18887"
     inkscape:cy="868.95656"
     inkscape:document-units="mm"
     inkscape:current-layer="layer1"
     inkscape:document-rotation="0"
     showgrid="false"
     fit-margin-top="0"
     fit-margin-left="0"
     fit-margin-right="0"
     fit-margin-bottom="0"
     inkscape:window-width="2400"
     inkscape:window-height="1271"
     inkscape:window-x="2391"
     inkscape:window-y="-9"
     inkscape:window-maximized="1" />
  <metadata
     id="metadata117">
    <rdf:RDF>
      <cc:Work
         rdf:about="">
        <dc:format>image/svg+xml</dc:format>
        <dc:type
           rdf:resource="http://purl.org/dc/dcmitype/StillImage" />
        <dc:title></dc:title>
      </cc:Work>
    </rdf:RDF>
  </metadata>
  <g
     inkscape:label="Layer 1"
     inkscape:groupmode="layer"
     id="layer1"
     transform="translate(-53.760389,-67.933816)">
    <path
       d="m 111.93895,170.21001 c 0.28048,-0.5424 0.64637,-0.78145 1.38501,-0.90493 0.55213,-0.0923 1.15689,-0.26681 1.34395,-0.38783 0.49199,-0.31826 0.74602,-2.16371 0.33295,-2.41898 -0.23259,-0.14375 -0.25447,-0.35192 -0.0737,-0.70112 0.1414,-0.27318 0.33703,-0.93974 0.43477,-1.48127 0.0977,-0.54149 0.39462,-1.13681 0.65981,-1.32291 0.95356,-0.66916 1.78478,-2.21166 1.6963,-3.14794 -0.0465,-0.49199 -0.10329,-1.86092 -0.12623,-3.04202 -0.0391,-2.01046 0.019,-2.25594 0.90905,-3.84765 l 0.95078,-1.70016 -0.474,-1.04714 c -0.26072,-0.57594 -0.72895,-1.27397 -1.04055,-1.5512 -0.55256,-0.49159 -0.7693,-1.21576 -0.36386,-1.21576 0.11145,0 0.89988,0.71078 1.75202,1.57951 1.40703,1.43439 2.83758,2.35752 4.26302,2.75088 1.44918,0.39991 2.24777,-2.0315 1.17682,-3.58291 -0.69938,-1.01312 -3.58127,-4.13999 -4.32496,-4.6926 -0.27625,-0.20529 -1.28829,-0.46355 -2.24896,-0.57393 -0.96065,-0.11039 -2.39768,-0.38892 -3.19336,-0.61894 -1.02677,-0.29684 -2.57768,-0.41826 -5.34281,-0.41826 -3.63411,0 -3.92176,-0.0366 -4.27789,-0.54509 -0.21,-0.2998 -1.01021,-0.86982 -1.77827,-1.26669 -1.13445,-0.58622 -1.40229,-0.85464 -1.4275,-1.43063 -0.0169,-0.38997 -0.3736,-1.06659 -0.7923,-1.50363 -0.65312,-0.6817 -0.69892,-0.81849 -0.32237,-0.96298 0.58664,-0.2251 0.55333,-0.79544 -0.10001,-1.71296 -0.29639,-0.41627 -0.77139,-1.28244 -1.055553,-1.92482 -0.45231,-1.02254 -0.64326,-1.18824 -1.53295,-1.33051 -1.01676,-0.16259 -3.82839,-1.50683 -4.51096,-2.15667 -0.19926,-0.18973 -0.39333,-0.80275 -0.43124,-1.36226 -0.0379,-0.55952 -0.15936,-1.35933 -0.26985,-1.77737 l -0.20087,-0.76009 -2.13638,0.14004 c -1.97972,0.12978 -2.24859,0.0834 -3.66689,-0.63256 l -1.53053,-0.77261 -1.09149,0.689 c -0.99327,0.62703 -1.05399,0.72652 -0.67482,1.10572 0.37918,0.37917 0.25712,0.52067 -1.35633,1.57231 -0.97518,0.63561 -2.20401,1.61631 -2.73074,2.17935 -1.07122,1.14501 -1.19899,1.15863 -4.99541,0.53247 -1.09141,-0.17999 -2.82721,-0.35084 -3.85736,-0.37965 -1.77552,-0.0497 -3.55098,-0.67524 -3.55098,-1.25116 0,-0.11414 -0.30559,-0.20754 -0.67913,-0.20754 -0.41333,0 -1.0605,-0.36153 -1.65364,-0.92374 -0.96732,-0.91691 -0.99248,-0.92377 -3.40302,-0.92604 -1.74876,-0.003 -2.53423,-0.10803 -2.80625,-0.38005 -0.20775,-0.20778 -0.84135,-0.46143 -1.40796,-0.56367 -1.45618,-0.26278 -1.60943,-0.45794 -1.81154,-2.30722 -0.16503,-1.50952 -0.24988,-1.68137 -1.02222,-2.07028 -0.80949,-0.40762 -0.84119,-0.48485 -0.81418,-1.98437 0.0305,-1.69114 0.34462,-8.78404 0.50268,-11.34983 0.0538,-0.87313 0.17391,-3.47963 0.26692,-5.79224 0.21232,-5.27914 -0.24432,-4.450079 6.0635,-11.008806 1.32959,-1.382448 3.18723,-3.393593 4.12811,-4.469209 0.94089,-1.075619 1.83396,-2.08765 1.98462,-2.248958 0.15065,-0.161312 1.69772,-1.960166 3.43791,-3.997458 1.74019,-2.037291 3.76008,-4.363294 4.48858,-5.168894 3.56754,-3.945007 5.16334,-5.736691 5.64727,-6.340481 l 0.53014,-0.661458 0.88088,0.499433 c 1.08053,0.612627 2.86525,2.280314 2.86525,2.677361 0,0.160203 0.39151,0.670745 0.87003,1.134541 0.64257,0.622806 1.28241,0.922653 2.4474,1.146919 1.0878,0.209409 1.82515,0.53622 2.37574,1.052991 0.75713,0.710647 1.42637,0.965208 2.65454,1.009719 0.29837,0.01082 1.19134,0.59685 1.98438,1.3023 l 1.44187,1.282642 4.957793,0.165581 c 4.31869,0.144238 5.09878,0.237514 6.05157,0.723591 l 1.09377,0.558006 -0.17955,2.29325 c -0.0988,1.261287 -0.28181,2.396265 -0.40674,2.522175 -0.12679,0.127764 -0.007,0.591621 0.27196,1.049713 0.27453,0.451435 0.57266,1.36045 0.66252,2.020035 0.28829,2.116484 0.33321,2.334917 0.58219,2.829682 0.13456,0.267425 0.20717,1.033664 0.16134,1.70275 -0.0673,0.982443 0.068,1.455155 0.70318,2.456712 1.02129,1.610413 4.20304,5.45489 4.51453,5.45489 0.60508,0 2.29421,2.184093 2.76868,3.580023 l 0.51036,1.50146 1.63592,-0.12324 1.63592,-0.12322 0.16766,1.35279 c 0.26509,2.13873 0.37444,3.10097 0.52967,4.6601 0.0797,0.80037 0.19643,1.75287 0.25943,2.11667 0.063,0.3638 0.18655,1.37583 0.2745,2.24896 0.088,0.87312 0.2036,1.88516 0.25696,2.24896 0.12753,0.86968 0.37667,2.97947 0.54674,4.6302 0.075,0.72761 0.18825,1.73964 0.25172,2.24896 0.39717,3.18587 0.65487,5.35424 0.79825,6.71658 0.0901,0.85648 0.52139,2.35672 0.9583,3.33386 0.67005,1.49854 1.03497,1.9463 2.33116,2.86041 1.70958,1.2056 4.09771,2.05269 6.49759,2.3047 1.09778,0.11528 1.96193,0.40595 2.80127,0.94224 0.6676,0.42656 1.4415,0.77808 1.71979,0.7812 0.28229,0.003 0.82609,0.45824 1.22989,1.02926 l 0.7239,1.02365 2.28465,-0.12584 c 1.97864,-0.10895 2.50831,-0.24873 3.95412,-1.04346 1.67397,-0.92014 3.01146,-1.34147 3.04932,-0.9606 0.0402,0.40484 0.19156,1.07566 0.36793,1.63142 0.14158,0.44609 -0.0353,0.74965 -0.82849,1.42177 -1.6524,1.4002 -3.02442,2.85451 -4.98363,5.28251 -1.01865,1.26238 -1.97115,2.30452 -2.11667,2.3159 -0.44606,0.0348 -1.50442,1.0323 -1.35385,1.27592 0.30766,0.49782 -1.81311,1.30241 -3.57084,1.35475 -3.15817,0.094 -7.70784,1.96551 -8.67783,3.56963 -0.96139,1.5899 -0.95374,1.97482 0.0475,2.3932 0.49716,0.2077 1.13528,0.31716 1.41809,0.24318 0.38923,-0.10176 0.62079,0.0891 0.95271,0.7851 0.51464,1.07921 0.33912,1.2292 -1.43822,1.2292 -1.07111,0 -3.96155,1.09106 -4.70781,1.77708 -0.34943,0.32123 -0.31858,0.4242 0.2581,0.86137 l 0.65495,0.49652 -0.72652,0.18235 c -0.3996,0.10031 -1.25306,0.0498 -1.89661,-0.11226 -2.50934,-0.63188 -3.10346,-0.35343 -6.2275,2.91859 -1.71228,1.7934 -2.1114,2.08158 -2.91042,2.1014 -0.50927,0.0127 -1.31109,0.0627 -1.78183,0.11134 l -0.85585,0.0884 z"
       id="CA-ON"
       style="fill:#252525;stroke-width:0.264583;fill-opacity:1" />
  </g>
</svg>
