<?xml version="1.0" encoding="UTF-8" standalone="no"?>
<svg
   xmlns:dc="http://purl.org/dc/elements/1.1/"
   xmlns:cc="http://creativecommons.org/ns#"
   xmlns:rdf="http://www.w3.org/1999/02/22-rdf-syntax-ns#"
   xmlns:svg="http://www.w3.org/2000/svg"
   xmlns="http://www.w3.org/2000/svg"
   xmlns:sodipodi="http://sodipodi.sourceforge.net/DTD/sodipodi-0.dtd"
   xmlns:inkscape="http://www.inkscape.org/namespaces/inkscape"
   width="99.831108mm"
   height="123.02531mm"
   viewBox="0 0 99.831108 123.02531"
   version="1.1"
   id="svg120"
   inkscape:version="1.0.2-2 (e86c870879, 2021-01-15)"
   sodipodi:docname="Quebec.svg">
  <defs
     id="defs114" />
  <sodipodi:namedview
     id="base"
     pagecolor="#ffffff"
     bordercolor="#666666"
     borderopacity="1.0"
     inkscape:pageopacity="0.0"
     inkscape:pageshadow="2"
     inkscape:zoom="0.35"
     inkscape:cx="220.08557"
     inkscape:cy="535.34584"
     inkscape:document-units="mm"
     inkscape:current-layer="layer1"
     inkscape:document-rotation="0"
     showgrid="false"
     fit-margin-top="0"
     fit-margin-left="0"
     fit-margin-right="0"
     fit-margin-bottom="0"
     inkscape:window-width="1920"
     inkscape:window-height="1001"
     inkscape:window-x="-9"
     inkscape:window-y="-9"
     inkscape:window-maximized="1" />
  <metadata
     id="metadata117">
    <rdf:RDF>
      <cc:Work
         rdf:about="">
        <dc:format>image/svg+xml</dc:format>
        <dc:type
           rdf:resource="http://purl.org/dc/dcmitype/StillImage" />
        <dc:title></dc:title>
      </cc:Work>
    </rdf:RDF>
  </metadata>
  <g
     inkscape:label="Layer 1"
     inkscape:groupmode="layer"
     id="layer1"
     transform="translate(-47.60236,-65.487365)">
    <path
       d="m 83.08616,187.7811 c -0.23765,-0.40232 -0.4789,-1.14646 -0.53607,-1.65364 -0.0982,-0.8712 -0.1642,-0.92657 -1.19484,-1.00262 -1.09069,-0.0805 -2.50901,0.46572 -4.07733,1.57025 -0.53419,0.37624 -1.17515,0.49462 -2.67788,0.49462 -1.96053,0 -1.98035,-0.007 -2.60498,-0.92425 -0.34618,-0.50831 -0.85436,-0.92503 -1.12932,-0.92604 -0.27495,0 -1.10273,-0.37272 -1.83951,-0.82605 -0.93486,-0.57523 -1.78306,-0.86199 -2.80739,-0.94906 -2.23327,-0.18984 -4.71731,-1.00936 -6.24163,-2.0592 -1.12368,-0.77393 -1.5186,-1.2678 -2.17768,-2.72359 -0.48657,-1.07479 -0.87228,-2.45862 -0.97496,-3.49806 -0.0934,-0.94588 -0.21775,-2.07698 -0.2762,-2.51354 -0.0585,-0.43656 -0.23741,-1.92484 -0.39769,-3.30729 -0.16026,-1.38245 -0.34153,-2.93026 -0.40281,-3.43959 -0.0613,-0.50932 -0.17592,-1.46182 -0.25476,-2.11666 -0.0789,-0.65485 -0.49927,-4.28625 -0.9343,-8.06979 -0.43503,-3.78355 -0.85574,-7.19052 -0.93493,-7.57107 -0.12637,-0.60731 -0.0427,-0.71215 0.6845,-0.85758 0.76589,-0.15319 0.81497,-0.22701 0.65008,-0.97779 -0.13954,-0.63529 -0.0193,-1.0523 0.55174,-1.91536 0.40156,-0.60679 0.72908,-1.40324 0.72784,-1.7699 0,-0.36665 -0.48554,-1.67867 -1.07624,-2.9156 -0.59074,-1.23692 -1.20193,-2.7252 -1.35822,-3.30729 -0.15631,-0.58208 -0.48739,-1.34748 -0.73572,-1.70088 -0.30639,-0.43604 -0.42971,-1.0535 -0.38365,-1.92116 0.0735,-1.38488 -0.62701,-2.89053 -1.58284,-3.40207 -0.30398,-0.1627 -0.50787,-0.5569 -0.51139,-0.98884 -0.003,-0.39506 -0.23873,-1.01595 -0.52329,-1.37976 -0.28456,-0.3638 -0.52004,-0.7809 -0.5233,-0.9269 -0.009,-0.39439 1.28413,-1.54045 2.77757,-2.46215 0.7247,-0.44724 1.69537,-1.26666 2.15707,-1.82091 0.46173,-0.55426 1.37054,-1.5893 2.01965,-2.30009 0.79033,-0.86548 1.50053,-2.0757 2.15011,-3.66393 0.87955,-2.15058 0.96536,-2.58003 0.92064,-4.60843 -0.0362,-1.64085 -0.24365,-2.81477 -0.77875,-4.40586 -0.40121,-1.19296 -0.8011,-2.48544 -0.88868,-2.87217 -0.27702,-1.22351 -2.63996,-3.76417 -4.34705,-4.674046 -2.04219,-1.088477 -3.61664,-2.659893 -3.69496,-3.687865 -0.0329,-0.431827 0.14047,-1.247751 0.38529,-1.813163 0.24481,-0.565412 0.47744,-1.20646 0.51689,-1.424554 0.0395,-0.21809 0.31607,-0.594362 0.61468,-0.83616 0.41034,-0.332266 0.54292,-0.748181 0.54292,-1.703083 0,-0.890974 0.15298,-1.426289 0.5189,-1.815796 0.48096,-0.511968 0.49133,-0.632357 0.14177,-1.64697 -0.20741,-0.602046 -0.43043,-1.388589 -0.4956,-1.747872 -0.14647,-0.807733 -0.84285,-2.180466 -1.63893,-3.230671 -0.54335,-0.716828 -0.60195,-1.084704 -0.60455,-3.796072 -0.003,-2.165705 -0.10485,-3.124166 -0.36891,-3.439583 -0.20132,-0.240493 -0.70421,-1.253393 -1.11754,-2.250888 l -0.75155,-1.813623 0.68101,-1.388544 c 0.64894,-1.323174 0.73983,-1.396606 1.93056,-1.559812 1.98726,-0.272385 3.67104,-0.200884 4.8206,0.204703 1.51315,0.533869 3.62445,0.722096 4.47448,0.398913 0.39907,-0.151718 1.19972,-0.745321 1.77924,-1.319118 0.57954,-0.573796 1.17903,-1.040566 1.3322,-1.037264 0.46464,0.01003 5.57673,2.701554 7.2753,3.830455 1.29339,0.859626 1.58324,1.182526 1.54377,1.719791 -0.0267,0.363802 0.15221,0.96515 0.39767,1.336331 0.40052,0.605714 0.72458,0.708584 3.16235,1.003835 1.49386,0.18093 3.29366,0.515876 3.9996,0.744329 l 1.28349,0.415366 -0.18065,1.445998 c -0.17627,1.410629 0.0204,2.32342 1.24253,5.769766 0.15481,0.436563 0.26969,1.120598 0.2553,1.520079 -0.0161,0.449464 0.22836,0.980903 0.64164,1.394175 0.36732,0.367315 0.90384,1.20133 1.19226,1.853366 l 0.52441,1.185521 1.30349,-0.158763 c 1.25524,-0.152884 1.35539,-0.114451 2.70413,1.037818 0.77033,0.658119 1.72601,1.278247 2.1237,1.378063 0.3977,0.09981 0.72308,0.287637 0.72308,0.417383 0,0.49262 0.55973,0.197435 1.68492,-0.888579 0.86818,-0.837946 1.21089,-1.402215 1.34498,-2.214428 0.12671,-0.767553 0.35552,-1.169942 0.77351,-1.360395 0.36642,-0.166946 0.73245,-0.71175 0.9565,-1.423593 0.41113,-1.306348 0.36689,-4.055107 -0.0781,-4.854363 -0.16296,-0.292664 -0.26192,-0.648639 -0.2199,-0.791057 0.042,-0.142417 0.1969,-0.910899 0.3442,-1.70774 0.24228,-1.31065 0.86849,-2.255993 1.31257,-1.98153 0.0942,0.05825 0.25326,0.553707 0.35335,1.101016 0.22511,1.23077 1.36538,3.244069 1.83737,3.244069 0.32197,0 1.07537,2.645698 0.94179,3.307292 -0.14568,0.721627 0.0708,0.823068 1.53061,0.717433 l 1.52136,-0.110082 -0.0403,1.680699 c -0.0222,0.924386 -0.16709,2.082861 -0.32198,2.574391 -0.18221,0.578307 -0.19248,1.060161 -0.0291,1.365414 0.30703,0.573643 1.71789,1.470951 2.69709,1.715323 0.88852,0.22175 0.96385,0.456763 1.1412,3.56086 0.0785,1.374103 0.30763,3.098294 0.50914,3.831539 0.2015,0.733245 0.43703,1.758292 0.52339,2.277876 0.10602,0.63792 0.42162,1.14034 0.97177,1.54709 0.79293,0.58624 2.08171,2.90272 2.0869,3.75105 0.003,0.23211 0.22423,0.62259 0.49511,0.86774 0.27088,0.24515 0.69937,0.90444 0.95218,1.46509 0.44469,0.98615 0.44162,1.0602 -0.0946,2.27243 l -0.55428,1.25307 -1.39009,-0.14426 c -0.76457,-0.0793 -1.75458,-0.22288 -2.20006,-0.31898 -0.71829,-0.15496 -0.883,-0.0675 -1.45521,0.77259 -0.70768,1.039 -1.15726,1.16818 -1.85812,0.53392 -0.25344,-0.22936 -1.1874,-0.56675 -2.07547,-0.74976 -1.76535,-0.3638 -1.93596,-0.28932 -2.23872,0.97734 -0.0999,0.41782 -0.45918,0.86559 -0.83023,1.03465 -0.50626,0.23067 -0.65416,0.49839 -0.65416,1.18404 0,0.62999 -0.23699,1.13374 -0.82023,1.74347 -0.71845,0.75106 -0.80209,0.99029 -0.67398,1.9276 0.0805,0.58856 0.30901,1.38378 0.5079,1.76715 0.60497,1.16611 2.179,2.74487 3.26556,3.27538 1.14705,0.56004 1.33715,1.19428 0.81254,2.71075 -0.28559,0.82555 -0.25427,0.9308 0.4599,1.5451 0.77277,0.66472 1.68912,0.72828 3.22442,0.22366 0.50681,-0.16657 0.57521,-0.0571 0.73996,1.18497 0.12526,0.94428 0.38785,1.5748 0.84707,2.03401 0.60721,0.60722 0.79343,0.64954 2.12563,0.4831 1.2002,-0.14996 1.55281,-0.0986 1.98067,0.28864 0.28628,0.25909 0.72319,0.50814 0.97086,0.55345 1.23069,0.22512 3.93645,0.29374 4.23784,0.10746 0.18801,-0.11619 0.39407,-0.73608 0.45791,-1.37752 0.14867,-1.49348 0.3416,-3.26222 0.36592,-3.35446 0.0103,-0.0393 0.51094,0.17952 1.11239,0.48635 0.80608,0.41123 1.37982,0.51943 2.18281,0.41163 1.14803,-0.15412 5.38657,-1.59533 9.82054,-3.33925 6.80273,-2.67557 10.98944,-4.21339 12.5485,-4.60919 0.9353,-0.23745 1.86309,-0.56661 2.06171,-0.73147 0.21267,-0.1765 0.44598,-0.20101 0.56745,-0.0596 0.61889,0.72041 1.88796,2.45326 1.88796,2.57786 0,0.0797 -0.74414,0.71265 -1.65364,1.40657 -2.42621,1.85111 -3.87207,3.49534 -4.03633,4.59008 -0.0764,0.50933 -0.6731,1.99761 -1.32598,3.3073 -0.65289,1.30968 -1.29456,2.6789 -1.42595,3.0427 -0.29702,0.82241 -4.57613,3.12134 -7.30081,3.92231 -1.01864,0.29945 -3.28083,0.95817 -5.02708,1.46384 -10.23223,2.96294 -15.17578,4.82384 -16.09873,6.06003 -0.27191,0.36417 -0.60135,1.24175 -0.73213,1.95017 -0.13076,0.70841 -0.48511,2.0917 -0.78745,3.07397 -0.47744,1.55117 -0.63254,1.78593 -1.17991,1.78593 -1.25812,0 -3.85149,2.95154 -4.76578,5.42396 -0.26906,0.72761 -0.86826,1.92151 -1.33152,2.65314 -0.46328,0.7316 -0.89831,1.74363 -0.96673,2.24896 -0.3002,2.21662 -4.35936,8.7885 -6.47174,10.47787 -2.96658,2.37252 -7.04701,6.71369 -6.66522,7.09117 0.058,0.0573 1.11749,-1.0152 2.35442,-2.38339 1.23693,-1.36821 3.03186,-3.07679 3.98875,-3.79685 1.64407,-1.23714 3.44382,-3.13925 4.64942,-4.91381 1.07611,-1.58399 3.0035,-5.40486 3.0035,-5.95416 0,-0.30962 0.13623,-0.82299 0.30273,-1.14083 0.48139,-0.9189 2.91698,-3.92136 3.9306,-4.8454 0.50932,-0.46431 1.51826,-1.39025 2.24205,-2.05766 0.72382,-0.66738 2.03351,-1.6501 2.91042,-2.18379 0.87693,-0.53372 2.48737,-1.58758 3.57878,-2.34199 1.38245,-0.95554 2.50902,-1.50079 3.71396,-1.79758 1.62374,-0.39991 1.82451,-0.39661 3.28086,0.054 1.27068,0.39315 1.63652,0.64236 2.02279,1.37787 1.05092,2.00118 0.88577,3.36246 -0.6313,5.2037 -1.4723,1.78691 -2.01559,2.13667 -3.56645,2.296 -3.03577,0.31192 -5.56252,1.02174 -6.39006,1.79514 -1.07317,1.00299 -1.95601,1.30522 -4.04918,1.38618 -2.50378,0.0968 -2.6521,0.27435 -2.44398,2.92492 l 0.1701,2.16622 -1.01994,0.16309 c -0.56097,0.0897 -1.33739,0.10552 -1.72538,0.0352 -0.5226,-0.0948 -0.81489,0.0269 -1.12773,0.46958 -0.518,0.7329 -1.64545,4.40047 -1.85103,6.02144 -0.083,0.65485 -0.26622,1.96453 -0.40703,2.91042 -0.14081,0.94588 -0.30777,2.2329 -0.37097,2.86006 -0.20577,2.04121 -0.99396,3.78773 -2.04441,4.53012 -0.52891,0.37377 -1.23018,1.06846 -1.55837,1.54376 -0.32822,0.47527 -0.84799,0.91469 -1.15504,0.9765 -0.30708,0.0618 -2.48544,0.53612 -4.84084,1.05407 -2.3554,0.51795 -4.91935,0.94173 -5.69765,0.94173 -1.265,0 -1.46092,-0.0776 -1.84721,-0.73152 z"
       id="path2183"
       style="fill:#d3d3d3;stroke-width:0.264583" />
    <path
       style="fill:#000000;stroke-width:2.85714"
       d="m 135.32503,458.68442 c -2.1163,-8.09278 -8.45645,-9.75226 -18.1357,-4.74692 -10.37732,5.36632 -19.776233,5.30326 -27.031647,-0.18143 -3.103197,-2.34583 -14.347449,-6.85765 -24.987226,-10.02631 -15.819334,-4.71123 -20.157388,-7.33212 -23.802203,-14.3804 -2.577843,-4.985 -7.11772,-31.13743 -10.767214,-62.02569 -6.162821,-52.16028 -6.187665,-53.66554 -1.064723,-64.5088 5.226646,-11.06271 5.219152,-11.16265 -2.102706,-28.04545 -4.041422,-9.31866 -7.348042,-18.95658 -7.348042,-21.41752 0,-2.46094 -2.731038,-8.89334 -6.068974,-14.29424 l -6.0689734,-9.8198 6.7832594,-4.72831 C 52.581743,198.1254 56.700114,155.69622 24.112534,127.85579 L 9.1772439,115.09617 14.631406,99.578098 C 21.436653,80.215952 21.418526,77.731009 14.371283,63.917272 11.228426,57.756764 8.6569971,48.577838 8.6569971,43.519661 8.6569971,38.461484 7.1436054,30.137764 5.2939045,25.022508 -0.14568907,9.9795791 5.2959388,5.9596536 27.831703,8.3730293 42.884083,9.9850025 46.955751,9.4711288 51.464971,5.3903405 56.65848,0.69027911 57.638349,0.87528825 72.457503,9.3539493 c 8.549603,4.8915877 16.168986,11.2809377 16.93196,14.1985547 0.919106,3.514671 5.127183,5.96888 12.470237,7.272814 17.25839,3.064643 21.28501,4.689768 20.58613,8.308463 -2.54613,13.183325 10.46026,44.783491 18.43255,44.783491 2.9968,0 8.71778,2.571429 12.71327,5.714286 10.35569,8.145786 14.05452,7.201994 22.17236,-5.657509 5.49122,-8.698643 7.19364,-15.246983 7.24223,-27.857143 l 0.0635,-16.485348 5.71456,7.142857 c 3.14301,3.928571 6.48942,10.678571 7.43647,15 1.18073,5.387711 3.52311,7.857143 7.45289,7.857143 4.95912,0 5.5114,1.353131 4.1006,10.046851 -1.35995,8.380366 -0.52051,10.774066 5.06077,14.43106 4.96027,3.250097 7.45176,8.702281 9.6315,21.076881 1.6172,9.18097 7.01747,23.91691 12.0006,32.74654 10.2271,18.12143 9.65817,25.99422 -1.72128,23.8189 -3.99773,-0.76422 -8.91608,0.258 -10.92966,2.27157 -2.33664,2.33663 -5.12068,2.73708 -7.69585,1.10695 -8.18084,-5.17863 -13.9035,-2.45462 -21.27749,10.12814 -8.52503,14.54685 -7.69024,21.39823 3.91801,32.15639 4.08962,3.79013 7.47498,9.69654 7.52303,13.12536 0.0652,4.64995 2.08405,6.46396 7.94451,7.13828 4.32142,0.49724 7.85714,2.58981 7.85714,4.65016 0,6.64061 7.33251,10.11818 25.2924,11.99536 l 17.56474,1.83588 v -8.3291 c 0,-7.70392 0.8042,-8.33587 10.71429,-8.41934 5.89285,-0.0496 28.4148,-6.77042 50.04874,-14.93507 21.63394,-8.16465 41.1652,-14.84481 43.4028,-14.84481 8.03386,0 8.16537,6.67533 0.25571,12.98223 -4.36082,3.47719 -11.96108,14.51439 -16.88945,24.52711 -10.59275,21.52066 -13.28726,23.13441 -65.20537,39.05177 -43.40255,13.30663 -49.57371,16.91149 -52.11185,30.44092 -1.20479,6.42208 -4.63447,11.96885 -9.28445,15.01565 -4.59442,3.01038 -12.76989,16.10132 -21.68927,34.72986 -11.24263,23.48089 -18.21687,33.83846 -32.49251,48.25532 -9.99746,10.09637 -18.17721,19.81888 -18.17721,21.60557 0,1.78671 9.70963,-6.36212 21.57694,-18.10852 14.26113,-14.1158 24.37609,-27.16945 29.8326,-38.49991 11.17969,-23.2146 43.77033,-53.14763 65.15893,-59.84552 8.01567,-2.51011 20.61519,4.90449 20.48353,12.05423 -0.18657,10.128 -13.55,20.64843 -26.22843,20.64843 -3.68223,0 -9.44527,1.9264 -12.80676,4.28086 -3.36148,2.35448 -11.04042,5.3366 -17.0643,6.62694 -10.13943,2.17189 -10.89868,3.02066 -10.22735,11.4334 0.63467,7.95346 -0.15493,9.08737 -6.32805,9.08737 -9.12171,0 -11.75398,5.3464 -16.68213,33.88306 -5.74696,33.27797 -11.8411,38.72571 -50.05111,44.74211 -10.86219,1.71032 -12.51736,1.24938 -13.85298,-3.85802 z"
       id="path133"
       transform="matrix(0.26458333,0,0,0.26458333,47.60236,65.487365)" />
  </g>
</svg>
