<?xml version="1.0" encoding="UTF-8" standalone="no"?>
<svg
   xmlns:dc="http://purl.org/dc/elements/1.1/"
   xmlns:cc="http://creativecommons.org/ns#"
   xmlns:rdf="http://www.w3.org/1999/02/22-rdf-syntax-ns#"
   xmlns:svg="http://www.w3.org/2000/svg"
   xmlns="http://www.w3.org/2000/svg"
   xmlns:sodipodi="http://sodipodi.sourceforge.net/DTD/sodipodi-0.dtd"
   xmlns:inkscape="http://www.inkscape.org/namespaces/inkscape"
   width="99.830994mm"
   height="123.02532mm"
   viewBox="0 0 99.830994 123.02532"
   version="1.1"
   id="svg120"
   inkscape:version="1.0.2-2 (e86c870879, 2021-01-15)"
   sodipodi:docname="uebecGrey.svg">
  <defs
     id="defs114" />
  <sodipodi:namedview
     id="base"
     pagecolor="#ffffff"
     bordercolor="#666666"
     borderopacity="1.0"
     inkscape:pageopacity="0.0"
     inkscape:pageshadow="2"
     inkscape:zoom="0.35"
     inkscape:cx="220.08557"
     inkscape:cy="275.34584"
     inkscape:document-units="mm"
     inkscape:current-layer="layer1"
     inkscape:document-rotation="0"
     showgrid="false"
     fit-margin-top="0"
     fit-margin-left="0"
     fit-margin-right="0"
     fit-margin-bottom="0"
     inkscape:window-width="1431"
     inkscape:window-height="1030"
     inkscape:window-x="128"
     inkscape:window-y="0"
     inkscape:window-maximized="0" />
  <metadata
     id="metadata117">
    <rdf:RDF>
      <cc:Work
         rdf:about="">
        <dc:format>image/svg+xml</dc:format>
        <dc:type
           rdf:resource="http://purl.org/dc/dcmitype/StillImage" />
        <dc:title></dc:title>
      </cc:Work>
    </rdf:RDF>
  </metadata>
  <g
     inkscape:label="Layer 1"
     inkscape:groupmode="layer"
     id="layer1"
     transform="translate(-47.602359,-75.314747)">
    <path
       d="m 83.086159,197.60849 c -0.237649,-0.40232 -0.478896,-1.14646 -0.536072,-1.65364 -0.09821,-0.8712 -0.164201,-0.92657 -1.194832,-1.00262 -1.090692,-0.0805 -2.509017,0.46572 -4.077335,1.57025 -0.534194,0.37624 -1.175147,0.49462 -2.677874,0.49462 -1.960536,0 -1.980353,-0.007 -2.604982,-0.92425 -0.346181,-0.50831 -0.854366,-0.92503 -1.129321,-0.92604 -0.274955,0 -1.10273,-0.37272 -1.839515,-0.82605 -0.934853,-0.57523 -1.783054,-0.86199 -2.807388,-0.94906 -2.233269,-0.18984 -4.717309,-1.00936 -6.241627,-2.0592 -1.123686,-0.77394 -1.518603,-1.26781 -2.17768,-2.7236 -0.486569,-1.07479 -0.872278,-2.45862 -0.974963,-3.49806 -0.09345,-0.94588 -0.217752,-2.07698 -0.276199,-2.51354 -0.05847,-0.43656 -0.23741,-1.92484 -0.397695,-3.30729 -0.160258,-1.38245 -0.341524,-2.93026 -0.402801,-3.43958 -0.06128,-0.50933 -0.175922,-1.46183 -0.254768,-2.11667 -0.07885,-0.65484 -0.499268,-4.28625 -0.934296,-8.06979 -0.435028,-3.78354 -0.855742,-7.19052 -0.934932,-7.57106 -0.126365,-0.60732 -0.0427,-0.71215 0.684504,-0.85759 0.765889,-0.15318 0.814969,-0.22701 0.650081,-0.97779 -0.139541,-0.63529 -0.01931,-1.0523 0.551735,-1.91536 0.401559,-0.60679 0.729086,-1.40324 0.727843,-1.76989 0,-0.36666 -0.485537,-1.67868 -1.076246,-2.9156 -0.590735,-1.23693 -1.201923,-2.72521 -1.358212,-3.3073 -0.156316,-0.58208 -0.487389,-1.34748 -0.735727,-1.70088 -0.306387,-0.43604 -0.42971,-1.0535 -0.383646,-1.92115 0.0735,-1.38489 -0.627009,-2.89054 -1.582843,-3.40208 -0.30398,-0.16269 -0.507868,-0.55689 -0.511387,-0.98884 -0.0032,-0.39506 -0.238733,-1.01595 -0.523293,-1.37975 -0.284559,-0.36381 -0.520038,-0.78091 -0.523292,-0.9269 -0.0087,-0.3944 1.284128,-1.54045 2.777569,-2.46216 0.724694,-0.44724 1.69537,-1.26665 2.157068,-1.82091 0.461725,-0.55426 1.370542,-1.5893 2.019644,-2.30009 0.790337,-0.86547 1.500532,-2.07569 2.15011,-3.66393 0.879555,-2.15058 0.965359,-2.58003 0.920644,-4.60843 -0.03617,-1.64085 -0.243654,-2.81477 -0.778748,-4.40586 -0.401214,-1.19296 -0.801105,-2.48544 -0.888682,-2.87217 -0.277019,-1.22351 -2.63996,-3.76417 -4.347051,-4.67404 -2.042187,-1.08848 -3.616643,-2.6599 -3.694959,-3.68787 -0.03292,-0.43183 0.140467,-1.24775 0.385286,-1.81316 0.244819,-0.56541 0.47744,-1.20646 0.51689,-1.42456 0.03948,-0.21809 0.316071,-0.59436 0.61468,-0.83616 0.410342,-0.33226 0.542925,-0.74818 0.542925,-1.703079 0,-0.890974 0.152982,-1.42629 0.518901,-1.815796 0.480959,-0.511969 0.491331,-0.632357 0.141763,-1.64697 -0.207407,-0.602046 -0.430424,-1.388589 -0.495591,-1.747872 -0.146473,-0.807733 -0.842856,-2.180466 -1.638935,-3.230671 -0.543348,-0.716828 -0.601953,-1.084704 -0.604546,-3.796072 -0.0026,-2.165705 -0.104855,-3.124166 -0.368909,-3.439584 -0.201321,-0.240493 -0.704215,-1.253392 -1.117547,-2.250887 l -0.751549,-1.813623 0.681011,-1.388544 c 0.648944,-1.323174 0.739828,-1.396606 1.930559,-1.559812 1.987259,-0.272385 3.671041,-0.200884 4.820602,0.204703 1.513153,0.533869 3.624448,0.722096 4.474475,0.398913 0.399071,-0.151718 1.199727,-0.745321 1.779244,-1.319118 0.579543,-0.573796 1.179036,-1.040566 1.332204,-1.037264 0.464634,0.01003 5.576728,2.701554 7.2753,3.830455 1.293389,0.859626 1.58324,1.182526 1.543765,1.719791 -0.02672,0.363803 0.152214,0.96515 0.397668,1.336331 0.400527,0.605714 0.724588,0.708584 3.162353,1.003835 1.493864,0.18093 3.293666,0.515877 3.999601,0.744328 l 1.283493,0.415367 -0.180657,1.445998 c -0.176266,1.410629 0.02037,2.32342 1.242536,5.769766 0.154807,0.436563 0.269689,1.120598 0.255296,1.520079 -0.01614,0.449464 0.228362,0.980903 0.641641,1.394174 0.367321,0.367316 0.903843,1.20133 1.192265,1.853367 l 0.524405,1.185521 1.303496,-0.158763 c 1.255236,-0.152884 1.355381,-0.114451 2.704121,1.037817 0.770334,0.65812 1.726009,1.278247 2.123704,1.378064 0.397696,0.09981 0.72308,0.287636 0.72308,0.417386 0,0.49262 0.559726,0.19743 1.68492,-0.888582 0.868177,-0.837946 1.210892,-1.402215 1.344983,-2.214428 0.126709,-0.767553 0.35552,-1.169942 0.773509,-1.360395 0.366422,-0.166946 0.732446,-0.71175 0.956495,-1.423593 0.411136,-1.306348 0.366898,-4.055107 -0.07813,-4.854363 -0.162957,-0.292664 -0.261911,-0.648639 -0.219895,-0.791057 0.04199,-0.142417 0.196903,-0.910899 0.344196,-1.70774 0.242279,-1.31065 0.868495,-2.255993 1.312571,-1.98153 0.09425,0.05825 0.25326,0.553706 0.353352,1.101016 0.225107,1.23077 1.365382,3.244069 1.837372,3.244069 0.321971,0 1.075376,2.645698 0.941786,3.307292 -0.145681,0.721627 0.0707,0.823068 1.53061,0.717433 l 1.52136,-0.110082 -0.0404,1.680699 c -0.0222,0.924386 -0.16709,2.082861 -0.32197,2.574391 -0.18222,0.578307 -0.19249,1.060161 -0.0291,1.365414 0.30702,0.573643 1.71788,1.470956 2.69708,1.715326 0.88852,0.22175 0.96385,0.45676 1.1412,3.56086 0.0785,1.3741 0.30763,3.09829 0.50914,3.83154 0.2015,0.73324 0.43704,1.75829 0.5234,2.27788 0.10602,0.63791 0.42161,1.14034 0.97176,1.54709 0.79293,0.58624 2.08171,2.90271 2.0869,3.75105 0.003,0.2321 0.22423,0.62259 0.49511,0.86773 0.27088,0.24515 0.69938,0.90444 0.95219,1.4651 0.44468,0.98615 0.44161,1.06019 -0.0946,2.27243 l -0.55428,1.25306 -1.39009,-0.14426 c -0.76457,-0.0793 -1.75459,-0.22288 -2.20007,-0.31898 -0.71829,-0.15495 -0.88299,-0.0675 -1.4552,0.77259 -0.70769,1.039 -1.15727,1.16819 -1.85812,0.53392 -0.25344,-0.22936 -1.1874,-0.56675 -2.07547,-0.74976 -1.76535,-0.3638 -1.93596,-0.28932 -2.23872,0.97734 -0.0999,0.41782 -0.459185,0.86559 -0.830237,1.03465 -0.506254,0.23067 -0.654156,0.49839 -0.654156,1.18404 0,0.62999 -0.236987,1.13374 -0.820235,1.74347 -0.718449,0.75106 -0.802084,0.9903 -0.673973,1.9276 0.08046,0.58857 0.309007,1.38378 0.507894,1.76715 0.60497,1.16611 2.179003,2.74487 3.265567,3.27538 1.14705,0.56004 1.33715,1.19428 0.81254,2.71075 -0.2856,0.82555 -0.25427,0.9308 0.45989,1.5451 0.77277,0.66472 1.68913,0.72828 3.22443,0.22366 0.50681,-0.16657 0.5752,-0.0571 0.73996,1.18497 0.12525,0.94428 0.38785,1.5748 0.84706,2.03402 0.60722,0.60722 0.79344,0.64954 2.12564,0.48309 1.2002,-0.14996 1.55281,-0.0986 1.98067,0.28864 0.28628,0.25909 0.72319,0.50814 0.97086,0.55345 1.23068,0.22513 3.93645,0.29374 4.23783,0.10746 0.18802,-0.11619 0.39407,-0.73607 0.45792,-1.37752 0.14867,-1.49348 0.3416,-3.26222 0.36592,-3.35445 0.0103,-0.0393 0.51093,0.17951 1.11238,0.48634 0.80608,0.41123 1.37983,0.51943 2.18282,0.41164 1.14802,-0.15412 5.38657,-1.59534 9.82054,-3.33926 6.80272,-2.67557 10.98944,-4.21339 12.5485,-4.60919 0.9353,-0.23745 1.86308,-0.56661 2.06171,-0.73147 0.21267,-0.1765 0.44598,-0.201 0.56745,-0.0596 0.61889,0.72041 1.88796,2.45326 1.88796,2.57786 0,0.0797 -0.74414,0.71265 -1.65365,1.40657 -2.4262,1.85111 -3.87207,3.49534 -4.03632,4.59009 -0.0764,0.50932 -0.6731,1.9976 -1.32599,3.30729 -0.65288,1.30969 -1.29455,2.6789 -1.42594,3.04271 -0.29702,0.82241 -4.57613,3.12133 -7.30081,3.9223 -1.01864,0.29945 -3.28083,0.95818 -5.02708,1.46384 -10.23223,2.96294 -15.17579,4.82384 -16.09873,6.06003 -0.27191,0.36417 -0.60135,1.24175 -0.73213,1.95017 -0.13076,0.70842 -0.48511,2.0917 -0.78745,3.07397 -0.47744,1.55117 -0.63254,1.78594 -1.17991,1.78594 -1.25812,0 -3.85149,2.95153 -4.76578,5.42395 -0.26906,0.72761 -0.86826,1.92151 -1.33152,2.65314 -0.46329,0.7316 -0.89831,1.74363 -0.96673,2.24896 -0.3002,2.21663 -4.359359,8.7885 -6.471739,10.47787 -2.966588,2.37252 -7.047019,6.7137 -6.665225,7.09118 0.05802,0.0573 1.117494,-1.01521 2.354421,-2.38339 1.236927,-1.36822 3.031861,-3.07679 3.988753,-3.79686 1.644068,-1.23714 3.443816,-3.13925 4.649417,-4.91381 1.076113,-1.58398 3.003493,-5.40486 3.003493,-5.95416 0,-0.30961 0.13624,-0.82299 0.30274,-1.14083 0.48138,-0.9189 2.91698,-3.92136 3.9306,-4.84539 0.50932,-0.46432 1.51826,-1.39026 2.24205,-2.05767 0.72382,-0.66738 2.03351,-1.6501 2.91042,-2.18379 0.87693,-0.53372 2.48737,-1.58758 3.57878,-2.34198 1.38245,-0.95555 2.50901,-1.5008 3.71395,-1.79758 1.62375,-0.39992 1.82452,-0.39661 3.28086,0.054 1.27069,0.39314 1.63653,0.64235 2.0228,1.37787 1.05092,2.00117 0.88577,3.36245 -0.6313,5.20369 -1.4723,1.78692 -2.0156,2.13667 -3.56645,2.296 -3.03578,0.31192 -5.56252,1.02174 -6.39006,1.79515 -1.07318,1.00298 -1.95601,1.30521 -4.04918,1.38617 -2.50378,0.0968 -2.65211,0.27435 -2.44398,2.92492 l 0.1701,2.16622 -1.01995,0.16309 c -0.56097,0.0897 -1.33739,0.10552 -1.72537,0.0352 -0.52261,-0.0948 -0.81489,0.0269 -1.12773,0.46958 -0.51801,0.7329 -1.64545,4.40047 -1.85103,6.02144 -0.0831,0.65485 -0.26622,1.96454 -0.40703,2.91042 -0.14082,0.94589 -0.30777,2.2329 -0.37098,2.86007 -0.20576,2.04121 -0.993957,3.78772 -2.044406,4.53012 -0.528902,0.37377 -1.23018,1.06846 -1.558369,1.54376 -0.328216,0.47527 -0.84799,0.91469 -1.155039,0.9765 -0.307075,0.0618 -2.485443,0.53612 -4.840843,1.05407 -2.3554,0.51795 -4.919345,0.94173 -5.697643,0.94173 -1.265,0 -1.460924,-0.0776 -1.847215,-0.73152 z"
       id="path2183"
       style="fill:black;stroke-width:0.264583" />
  </g>
</svg>
