<?xml version="1.0" encoding="utf-8"?>
<!-- Generator: Adobe Illustrator 24.3.0, SVG Export Plug-In . SVG Version: 6.00 Build 0)  -->
<svg version="1.1" xmlns="http://www.w3.org/2000/svg" xmlns:xlink="http://www.w3.org/1999/xlink" x="0px" y="0px"
	 viewBox="0 0 500 500" style="enable-background:new 0 0 500 500;" xml:space="preserve">
<style type="text/css">
	.st0{fill-rule:evenodd;clip-rule:evenodd;}
</style>
<g id="Opportunités">
</g>
<g id="Non_x5F_Intéressé">
</g>
<g id="Pointeur">
</g>
<g id="Litige">
</g>
<g id="Désactivé">
</g>
<g id="Liste_x5F_Noir">
</g>
<g id="Arrow">
</g>
<g id="RDV">
</g>
<g id="Crochet">
</g>
<g id="Relance">
</g>
<g id="Retour_x5F_Appel">
	<g>
		<g>
			<path class="st0" d="M325.03,450.86c61.82,12.06,125.14-46.74,125.14-46.74s10.55-15.08,3.02-27.14s-70.86-58.8-70.86-58.8
				s-16.59-10.55-30.15,0c-12.06,10.55-45.23,40.71-45.23,40.71s-13.57,4.52-42.22-16.59c-16.59-10.55-90.46-84.43-101.02-99.51
				c-21.11-30.15-16.59-43.72-16.59-43.72s31.66-33.17,40.71-45.23c10.55-12.06,1.51-28.65,1.51-28.65s-48.25-63.33-60.31-72.37
				c-10.55-7.54-27.14,3.02-27.14,3.02s-57.29,64.83-46.74,125.14C74.74,280.48,225.52,431.26,325.03,450.86z"/>
		</g>
		<g>
			<path d="M359.4,268.42h1.36c3.02,0,5.43-2.41,5.43-5.43l0,0v-39.8c0-29.1-23.67-52.77-52.77-52.77h-18.09V146.9
				c0-3.02-2.41-5.43-5.43-5.43l0,0c-1.36,0-2.56,0.45-3.62,1.36l-63.33,56.99c-2.11,1.96-2.41,5.43-0.45,7.54
				c0.15,0.15,0.3,0.3,0.45,0.45l63.17,57.29c2.26,1.96,5.58,1.81,7.69-0.45c0.9-1.06,1.36-2.26,1.36-3.62v-23.52h24.12
				c16.28,0,30.61,11.01,34.83,26.84C354.73,266.76,356.84,268.42,359.4,268.42z"/>
		</g>
	</g>
</g>
<g id="Appel">
</g>
</svg>
